<?xml version="1.0" encoding="UTF-8" standalone="no"?>
<!-- Created with Inkscape (http://www.inkscape.org/) -->

<svg
   xmlns:dc="http://purl.org/dc/elements/1.1/"
   xmlns:cc="http://creativecommons.org/ns#"
   xmlns:rdf="http://www.w3.org/1999/02/22-rdf-syntax-ns#"
   xmlns:svg="http://www.w3.org/2000/svg"
   xmlns="http://www.w3.org/2000/svg"
   xmlns:sodipodi="http://sodipodi.sourceforge.net/DTD/sodipodi-0.dtd"
   xmlns:inkscape="http://www.inkscape.org/namespaces/inkscape"
   width="210mm"
   height="297mm"
   viewBox="0 0 210 297"
   version="1.1"
   id="svg823"
   inkscape:version="0.92.3 (2405546, 2018-03-11)"
   sodipodi:docname="project-background.svg">
  <defs
     id="defs817" />
  <sodipodi:namedview
     id="base"
     pagecolor="#ffffff"
     bordercolor="#666666"
     borderopacity="1.0"
     inkscape:pageopacity="0.0"
     inkscape:pageshadow="2"
     inkscape:zoom="0.24748737"
     inkscape:cx="486.00132"
     inkscape:cy="165.01955"
     inkscape:document-units="mm"
     inkscape:current-layer="layer1"
     showgrid="false"
     inkscape:window-width="1920"
     inkscape:window-height="1001"
     inkscape:window-x="-9"
     inkscape:window-y="-9"
     inkscape:window-maximized="1"
     showguides="false"
     inkscape:measure-start="0,0"
     inkscape:measure-end="0,0" />
  <metadata
     id="metadata820">
    <rdf:RDF>
      <cc:Work
         rdf:about="">
        <dc:format>image/svg+xml</dc:format>
        <dc:type
           rdf:resource="http://purl.org/dc/dcmitype/StillImage" />
        <dc:title></dc:title>
      </cc:Work>
    </rdf:RDF>
  </metadata>
  <g
     inkscape:label="Layer 1"
     inkscape:groupmode="layer"
     id="layer1">
    <path
       inkscape:connector-curvature="0"
       style="fill:#f0db4f;stroke-width:0.26458332"
       d="m -526.58877,-124.00785 v 33.072914 h 33.07292 v -33.072914 z m 17.49399,28.181562 c -0.48816,0.991922 -1.42002,1.643591 -2.49978,1.958181 -1.6592,0.381 -3.24619,0.163777 -4.42676,-0.544777 -0.79004,-0.484717 -1.40705,-1.230842 -1.82589,-2.090473 l 2.51884,-1.54252 c 0.022,0.0093 0.0881,0.128852 0.17647,0.283369 0.32121,0.538161 0.59824,0.919161 1.14275,1.186655 0.53499,0.182562 1.70947,0.299244 2.16297,-0.642144 0.27702,-0.478895 0.18891,-2.01824 0.18891,-3.721363 -2.6e-4,-2.67626 0.0122,-5.34141 0.0122,-7.98724 h 3.09801 c 0,2.91041 0.0159,5.66684 0,8.50688 0.007,1.74096 0.15769,3.293004 -0.54769,4.593432 z m 12.85187,-0.875242 c -1.07685,3.683529 -7.08078,3.803121 -9.48002,1.369483 -0.50694,-0.572823 -0.82471,-0.872066 -1.12712,-1.53326 1.27502,-0.733424 1.27502,-0.733424 2.51565,-1.451239 0.6739,1.035843 1.29699,1.605491 2.41803,1.838589 1.52083,0.185737 3.05091,-0.336815 2.70775,-1.952095 -0.35269,-1.319213 -3.11415,-1.640148 -4.99348,-3.050908 -1.90791,-1.28138 -2.35506,-4.395 -0.78714,-6.17406 0.52255,-0.65801 1.41367,-1.14908 2.34871,-1.38509 l 0.97578,-0.12621 c 1.87351,-0.0378 3.04456,0.45694 3.90419,1.41685 0.23919,0.24236 0.43445,0.50377 0.79957,1.07024 -0.99801,0.63606 -0.99483,0.62997 -2.42437,1.55548 -0.30533,-0.65775 -0.81201,-1.0705 -1.34753,-1.24989 -0.83132,-0.25188 -1.8796,0.022 -2.09708,0.90038 -0.0754,0.27067 -0.0598,0.52255 0.0601,0.9697 0.33681,0.76808 1.46711,1.10199 2.48099,1.56792 2.91862,1.18374 3.9042,2.45295 4.14655,3.963721 0.23337,1.300692 -0.0564,2.144447 -0.10054,2.270389 z"
       id="path2586-0" />
    <path
       inkscape:connector-curvature="0"
       style="fill:#f0db4f;stroke-width:0.80000001"
       d="m 71.154021,251.33408 v 100 h 99.999999 v -100 z m 52.895199,85.21041 c -1.47601,2.99919 -4.29361,4.96959 -7.55839,5.92079 -5.0168,1.152 -9.81523,0.49518 -13.38483,-1.64721 -2.38878,-1.46561 -4.254385,-3.72159 -5.520799,-6.32079 l 7.616019,-4.66399 c 0.0665,0.0272 0.26638,0.38959 0.53358,0.8568 0.97122,1.62719 1.80882,2.77919 3.45522,3.58798 1.6176,0.55199 5.16879,0.90479 6.54,-1.94159 0.83761,-1.44801 0.57119,-6.10239 0.57119,-11.25201 -7.8e-4,-8.092 0.0369,-16.15041 0.0369,-24.15039 h 9.36722 c 0,8.8 0.0481,17.13441 0,25.72158 0.0212,5.26401 0.47679,9.95682 -1.65601,13.88883 z m 38.8592,-2.64643 c -3.25599,11.1376 -21.4096,11.4992 -28.664,4.14082 -1.5328,-1.73202 -2.49361,-2.63681 -3.40799,-4.636 3.85518,-2.21761 3.85518,-2.21761 7.60638,-4.388 2.03762,3.13199 3.92161,4.8544 7.31121,5.5592 4.59842,0.56158 9.2248,-1.01841 8.18721,-5.90241 -1.0664,-3.98879 -9.41601,-4.95919 -15.09839,-9.2248 -5.7688,-3.8744 -7.12082,-13.28878 -2.38002,-18.66799 1.58,-1.9896 4.27441,-3.47441 7.10161,-4.18799 l 2.95039,-0.38161 c 5.6648,-0.11429 9.20561,1.38159 11.80481,4.28399 0.72321,0.73281 1.3136,1.52321 2.41759,3.236 -3.0176,1.92321 -3.00799,1.90482 -7.33038,4.70322 -0.9232,-1.98882 -2.45521,-3.23682 -4.07442,-3.7792 -2.5136,-0.76162 -5.6832,0.0665 -6.34078,2.72238 -0.22798,0.8184 -0.18081,1.58002 0.18172,2.93201 1.01839,2.32241 4.43599,3.332 7.50158,4.74079 8.8248,3.57921 11.80482,7.4168 12.5376,11.98479 0.70562,3.93283 -0.17054,6.48401 -0.304,6.8648 z"
       id="path2586-2" />
    <path
       inkscape:connector-curvature="0"
       style="fill:#f34f29;stroke-width:0.26458332"
       d="m -249.46815,56.719761 -19.64376,-19.64271 c -1.13051,-1.13121 -2.96527,-1.13121 -4.09756,0 l -4.0783,4.07938 5.17425,5.17424 c 1.20284,-0.40594 2.5814,-0.13363 3.53977,0.8247 0.96336,0.96442 1.23385,2.35474 0.81723,3.56152 l 4.98677,4.98748 c 1.20641,-0.41592 2.59887,-0.14719 3.56187,0.81794 1.3472,1.34613 1.3472,3.52838 0,4.87522 -1.34719,1.34719 -3.52873,1.34719 -4.87664,0 -1.0129,-1.01361 -1.26344,-2.50158 -0.75023,-3.74971 l -4.65032,-4.65067 -7.1e-4,12.23917 c 0.32859,0.16217 0.63832,0.37887 0.91203,0.65151 1.34684,1.34612 1.34684,3.52766 0,4.87664 -1.34684,1.34613 -3.52981,1.34613 -4.87522,0 -1.34647,-1.34863 -1.45697,-3.53015 -0.11086,-4.87664 0.33288,-0.33252 0.66112,-0.58379 1.01753,-0.75201 v -12.35251 c -0.35641,-0.16823 -0.6843,-0.4177 -1.01789,-0.75237 -1.01966,-1.01931 -1.21033,-2.51619 -0.68715,-3.76929 l -5.07265,-5.10117 -13.45558,13.4684 c -1.13158,1.13228 -1.12445,2.96704 0.007,4.09861 l 19.64698,19.64271 c 1.13086,1.13121 2.96705,1.13121 4.09969,0 l 19.55217,-19.55147 c 1.13159,-1.13192 1.13265,-2.96775 0.001,-4.09897 z"
       id="path4374-6" />
    <path
       inkscape:connector-curvature="0"
       style="fill:#f34f29;stroke-width:0.26458332"
       d="m 813.26424,-133.78496 -14.58303,-14.58225 c -0.83926,-0.83978 -2.20134,-0.83978 -3.04192,0 l -3.02763,3.02843 3.84123,3.84122 c 0.89296,-0.30136 1.91637,-0.0992 2.62784,0.61224 0.71517,0.71596 0.91598,1.7481 0.60669,2.64398 l 3.70205,3.70258 c 0.89561,-0.30877 1.92934,-0.10927 2.64424,0.60722 1.00013,0.99933 1.00013,2.61938 0,3.61924 -1.00012,1.00012 -2.61964,1.00012 -3.62029,0 -0.75195,-0.75248 -0.93795,-1.85711 -0.55695,-2.78369 l -3.45228,-3.45254 -5.3e-4,9.08605 c 0.24394,0.12039 0.47387,0.28126 0.67707,0.48366 0.99986,0.99933 0.99986,2.61885 0,3.6203 -0.99986,0.99933 -2.62044,0.99933 -3.61924,0 -0.99959,-1.00119 -1.08162,-2.6207 -0.0823,-3.6203 0.24712,-0.24685 0.4908,-0.43339 0.75539,-0.55827 v -9.17019 c -0.26459,-0.12489 -0.50801,-0.31009 -0.75566,-0.55854 -0.75697,-0.75671 -0.89852,-1.86796 -0.51012,-2.79823 l -3.76581,-3.78698 -9.98908,9.9986 c -0.84005,0.84058 -0.83476,2.20266 0.005,3.04271 l 14.58542,14.58225 c 0.83952,0.83978 2.20266,0.83978 3.0435,0 l 14.51504,-14.51452 c 0.84006,-0.84031 0.84085,-2.20318 10e-4,-3.04297 z"
       id="path4374-7" />
    <path
       inkscape:connector-curvature="0"
       style="fill:#f34f29;stroke-width:0.26458332"
       d="M 725.07563,532.17538 710.4926,517.59313 c -0.83926,-0.83978 -2.20134,-0.83978 -3.04192,0 l -3.02763,3.02843 3.84123,3.84122 c 0.89296,-0.30136 1.91637,-0.0992 2.62784,0.61224 0.71517,0.71596 0.91598,1.7481 0.60669,2.64398 l 3.70205,3.70258 c 0.89561,-0.30877 1.92934,-0.10927 2.64424,0.60722 1.00013,0.99933 1.00013,2.61938 0,3.61924 -1.00012,1.00012 -2.61964,1.00012 -3.62029,0 -0.75195,-0.75248 -0.93795,-1.85711 -0.55695,-2.78369 l -3.45228,-3.45254 -5.3e-4,9.08605 c 0.24394,0.12039 0.47387,0.28126 0.67707,0.48366 0.99986,0.99933 0.99986,2.61885 0,3.6203 -0.99986,0.99933 -2.62044,0.99933 -3.61924,0 -0.99959,-1.00119 -1.08162,-2.6207 -0.0823,-3.6203 0.24712,-0.24685 0.4908,-0.43339 0.75539,-0.55827 v -9.17019 c -0.26459,-0.12489 -0.50801,-0.31009 -0.75566,-0.55854 -0.75697,-0.75671 -0.89852,-1.86796 -0.51012,-2.79823 l -3.76581,-3.78698 -9.98908,9.9986 c -0.84005,0.84058 -0.83476,2.20266 0.005,3.04271 l 14.58542,14.58225 c 0.83952,0.83978 2.20266,0.83978 3.0435,0 l 14.51504,-14.51452 c 0.84006,-0.84031 0.84085,-2.20318 10e-4,-3.04297 z"
       id="path4374-64" />
    <path
       inkscape:connector-curvature="0"
       d="m -48.790997,164.65175 c 0.76729,-0.0794 1.34937,-0.74084 1.32292,-1.53459 -0.0265,-0.79375 -0.68792,-1.42875 -1.48167,-1.42875 h -0.0529 c -0.82021,0.0265 -1.45521,0.71438 -1.42875,1.53459 0.0265,0.39687 0.18521,0.74083 0.42333,0.97895 -0.89958,1.77271 -2.27541,3.06917 -4.339158,4.15396 -1.40229,0.74084 -2.8575,1.00542 -4.31271,0.82021 -1.19062,-0.15875 -2.11667,-0.68792 -2.69875,-1.56104 -0.84667,-1.29646 -0.92604,-2.69875 -0.21167,-4.10104 0.50271,-1.00542 1.29646,-1.74625 1.79917,-2.11667 -0.10583,-0.34396 -0.26458,-0.92604 -0.34396,-1.34937 -3.83646,2.77812 -3.43958,6.5352 -2.27541,8.30791 0.87312,1.32292 2.64583,2.14313 4.60375,2.14313 0.52916,0 1.05833,-0.0529 1.5875,-0.18521 3.38666,-0.66146 5.953118,-2.67229 7.408328,-5.66208 z"
       id="path3793-7"
       style="fill:#3c6cb4;fill-opacity:1;stroke-width:0.26458332" />
    <path
       inkscape:connector-curvature="0"
       d="m -44.134327,161.37091 c -2.01084,-2.35479 -4.97417,-3.65125 -8.36084,-3.65125 h -0.423328 c -0.23813,-0.47625 -0.74083,-0.79375 -1.29646,-0.79375 h -0.0529 c -0.8202,0.0265 -1.4552,0.71438 -1.42875,1.53459 0.0265,0.79375 0.68792,1.42875 1.48167,1.42875 h 0.0529 c 0.58208,-0.0265 1.08479,-0.39688 1.29646,-0.89959 h 0.476248 c 2.01083,0 3.91583,0.58209 5.63562,1.71979 1.32292,0.87313 2.27542,2.01084 2.80458,3.38667 0.4498,1.11125 0.42334,2.19604 -0.0529,3.12208 -0.74083,1.4023 -1.98437,2.16959 -3.62479,2.16959 -1.05833,0 -2.06375,-0.3175 -2.59291,-0.55563 -0.29105,0.26459 -0.82021,0.68792 -1.19063,0.9525 1.13771,0.52917 2.30188,0.82021 3.41313,0.82021 2.54,0 4.41854,-1.40229 5.13291,-2.80458 0.76729,-1.53459 0.71438,-4.18042 -1.27,-6.42938 z"
       id="path3795-5"
       style="fill:#3c6cb4;fill-opacity:1;stroke-width:0.26458332" />
    <path
       inkscape:connector-curvature="0"
       d="m -57.575165,165.10154 c 0.0265,0.79375 0.68792,1.42875 1.48167,1.42875 h 0.0529 c 0.8202,-0.0265 1.4552,-0.71438 1.42875,-1.53459 -0.0265,-0.79375 -0.68792,-1.42875 -1.48167,-1.42875 h -0.0529 c -0.0529,0 -0.13229,0 -0.18521,0.0265 -1.08479,-1.79916 -1.53458,-3.75708 -1.37583,-5.87375 0.10583,-1.5875 0.635,-2.96333 1.56104,-4.10104 0.76729,-0.97896 2.24896,-1.45521 3.25438,-1.48167 2.804578,-0.0529 3.995208,3.43959 4.074578,4.84188 0.34396,0.0794 0.92604,0.26458 1.32292,0.39687 -0.3175,-4.28625 -2.96334,-6.50875 -5.503338,-6.50875 -2.38125,0 -4.57729,1.71979 -5.45041,4.2598 -1.21709,3.38666 -0.42334,6.64104 1.05833,9.2075 -0.13229,0.1852 -0.21167,0.47625 -0.18521,0.76729 z"
       id="path3797-1"
       style="fill:#3c6cb4;fill-opacity:1;stroke-width:0.26458332" />
    <path
       inkscape:connector-curvature="0"
       d="m -207.91316,586.53961 c 1.66066,-0.17186 2.92047,-1.60343 2.86322,-3.32136 -0.0574,-1.71792 -1.48888,-3.09227 -3.20681,-3.09227 h -0.11449 c -1.7752,0.0573 -3.14955,1.54614 -3.09228,3.32135 0.0574,0.85896 0.40085,1.60339 0.91622,2.11876 -1.94698,3.83672 -4.92472,6.64268 -9.39135,8.99051 -3.035,1.60342 -6.18455,2.17606 -9.3341,1.7752 -2.57688,-0.34359 -4.58116,-1.48888 -5.84096,-3.3786 -1.83248,-2.80596 -2.00426,-5.84097 -0.45813,-8.87598 1.08803,-2.17605 2.80596,-3.77944 3.89399,-4.58115 -0.22905,-0.74445 -0.57264,-2.00425 -0.74444,-2.92047 -8.30335,6.01275 -7.44437,14.14428 -4.92473,17.981 1.88972,2.86323 5.72643,4.63843 9.96401,4.63843 1.14527,0 2.29057,-0.11445 3.43586,-0.40086 7.32983,-1.43161 12.88448,-5.7837 16.03403,-12.25456 z"
       id="path3793-5"
       style="fill:#3c6cb4;fill-opacity:1;stroke-width:0.26458332" />
    <path
       inkscape:connector-curvature="0"
       d="m -197.83462,579.4388 c -4.35211,-5.09653 -10.76572,-7.90249 -18.09557,-7.90249 h -0.91622 c -0.51539,-1.03075 -1.6034,-1.71792 -2.80596,-1.71792 h -0.11449 c -1.77518,0.0573 -3.14953,1.54614 -3.09228,3.32134 0.0574,1.71794 1.48888,3.09228 3.20681,3.09228 h 0.1145 c 1.25981,-0.0573 2.34784,-0.85897 2.80596,-1.947 h 1.03076 c 4.35208,0 8.47512,1.25982 12.1973,3.72218 2.86323,1.88973 4.92475,4.35211 6.07002,7.32985 0.97351,2.4051 0.91625,4.75295 -0.11449,6.75719 -1.6034,3.03504 -4.29482,4.6957 -7.84522,4.6957 -2.29057,0 -4.46662,-0.68718 -5.6119,-1.20256 -0.62992,0.57265 -1.7752,1.48888 -2.57691,2.06151 2.46238,1.14529 4.98202,1.7752 7.38712,1.7752 5.49738,0 9.56315,-3.03501 11.10928,-6.07002 1.66067,-3.32134 1.54615,-9.04777 -2.74869,-13.91526 z"
       id="path3795-4"
       style="fill:#3c6cb4;fill-opacity:1;stroke-width:0.26458332" />
    <path
       inkscape:connector-curvature="0"
       d="m -226.92495,587.51309 c 0.0574,1.71794 1.48888,3.09228 3.20681,3.09228 h 0.1145 c 1.77517,-0.0573 3.14952,-1.54615 3.09228,-3.32134 -0.0574,-1.71794 -1.48889,-3.09228 -3.20682,-3.09228 h -0.11449 c -0.1145,0 -0.28632,0 -0.40086,0.0573 -2.34783,-3.89396 -3.32133,-8.13153 -2.97774,-12.7127 0.22905,-3.43585 1.37434,-6.41359 3.3786,-8.87597 1.66066,-2.11878 4.86747,-3.14954 7.04353,-3.20681 6.07002,-0.11445 8.64693,7.44438 8.81871,10.47939 0.74444,0.17186 2.00425,0.57264 2.86323,0.85896 -0.68718,-9.27684 -6.41363,-14.08704 -11.91101,-14.08704 -5.1538,0 -9.90674,3.72218 -11.79646,9.21959 -2.63417,7.32982 -0.91624,14.37335 2.29057,19.928 -0.28632,0.40083 -0.45812,1.03076 -0.40085,1.66067 z"
       id="path3797-7"
       style="fill:#3c6cb4;fill-opacity:1;stroke-width:0.26458332" />
    <path
       inkscape:connector-curvature="0"
       d="m 742.95166,180.84595 c 2.95229,-0.30551 5.19196,-2.85052 5.09018,-5.90463 -0.10196,-3.0541 -2.6469,-5.49738 -5.701,-5.49738 h -0.20354 c -3.15591,0.10196 -5.59919,2.74871 -5.49738,5.90462 0.10196,1.52703 0.71263,2.85049 1.62884,3.7667 -3.4613,6.82083 -8.75507,11.8092 -16.69573,15.98313 -5.39558,2.85053 -10.99477,3.86855 -16.59396,3.15592 -4.58113,-0.61082 -8.14428,-2.6469 -10.38395,-6.0064 -3.25772,-4.98837 -3.56311,-10.38394 -0.81444,-15.77952 1.93427,-3.86854 4.98838,-6.71902 6.92265,-8.14428 -0.4072,-1.32345 -1.01802,-3.56311 -1.32345,-5.19195 -14.7615,10.68933 -13.23443,25.1454 -8.75507,31.96623 3.35949,5.09019 10.18033,8.2461 17.71379,8.2461 2.03604,0 4.07212,-0.20354 6.1082,-0.71263 13.03081,-2.54509 22.90575,-10.28214 28.50494,-21.78591 z"
       id="path3793-1"
       style="fill:#3c6cb4;fill-opacity:1;stroke-width:0.26458332" />
    <path
       inkscape:connector-curvature="0"
       d="m 760.86907,168.2223 c -7.73708,-9.06049 -19.13905,-14.04887 -32.16989,-14.04887 h -1.62885 c -0.91625,-1.83246 -2.85048,-3.0541 -4.98837,-3.0541 h -0.20354 c -3.15587,0.10196 -5.59916,2.74871 -5.49738,5.90462 0.10196,3.05411 2.6469,5.49739 5.701,5.49739 h 0.20354 c 2.23966,-0.10197 4.17393,-1.52707 4.98837,-3.46134 h 1.83246 c 7.73705,0 15.06689,2.2397 21.68411,6.61721 5.09018,3.35953 8.7551,7.73708 10.79114,13.03085 1.73069,4.27574 1.62888,8.44967 -0.20354,12.01278 -2.85048,5.39561 -7.63523,8.34791 -13.94706,8.34791 -4.07212,0 -7.94066,-1.22164 -9.9767,-2.13789 -1.11987,1.01806 -3.15591,2.6469 -4.58118,3.66492 4.37756,2.03608 8.85692,3.15591 13.13266,3.15591 9.77313,0 17.00116,-5.39557 19.74983,-10.79115 2.95229,-5.90462 2.74871,-16.08495 -4.88656,-24.73824 z"
       id="path3795-3"
       style="fill:#3c6cb4;fill-opacity:1;stroke-width:0.26458332" />
    <path
       inkscape:connector-curvature="0"
       d="m 709.15292,182.5766 c 0.10197,3.0541 2.64691,5.49738 5.70101,5.49738 h 0.20354 c 3.15587,-0.10196 5.59915,-2.74871 5.49738,-5.90462 -0.10196,-3.0541 -2.6469,-5.49738 -5.701,-5.49738 h -0.20354 c -0.20354,0 -0.50901,0 -0.71263,0.10196 -4.17393,-6.92261 -5.90459,-14.45607 -5.29377,-22.60035 0.40721,-6.10821 2.44329,-11.40197 6.0064,-15.77952 2.95229,-3.76673 8.65329,-5.59919 12.52183,-5.701 10.79115,-0.20355 15.37232,13.23446 15.67771,18.63003 1.32345,0.30551 3.56311,1.01803 5.09018,1.52704 -1.22164,-16.49215 -11.402,-25.04364 -21.17513,-25.04364 -9.1623,0 -17.61198,6.61722 -20.97147,16.39038 -4.68298,13.03081 -1.62888,25.55264 4.07212,35.42758 -0.50901,0.71259 -0.81443,1.83246 -0.71263,2.95229 z"
       id="path3797-4"
       style="fill:#3c6cb4;fill-opacity:1;stroke-width:0.26458332" />
    <path
       inkscape:connector-curvature="0"
       class="cls-1"
       d="m 515.30014,40.755805 -44.77805,25.15436 v -19.59256 l 27.85802,-15.22317 z m 3.06996,-2.75043 v -52.5631 l -16.38497,9.4002704 V 28.622515 l 16.37624,9.37417 z m -96.55562,2.75043 44.73414,25.13697 v -19.57517 l -27.86675,-15.22317 z m -3.07003,-2.75043 v -52.5631 l 16.385,9.4002704 V 28.622515 Z m 1.92092,-55.96631 45.92716,-25.79848 v 18.93978 l -29.42813,16.0587604 -0.23653,0.13064 z m 95.76628,0 -45.90956,-25.79848 v 18.93978 l 29.42806,16.0500504 0.23688,0.13064 16.26219,-9.3219304 z"
       id="path6239-4"
       style="fill:#3c6cb4;fill-opacity:1;stroke-width:0.43523383" />
    <path
       inkscape:connector-curvature="0"
       class="cls-1"
       d="M 466.59253,41.861215 439.05905,26.829505 V -2.9205546 l 27.53348,15.7367396 z m 3.92956,0 27.53343,-15.01431 V -2.9205546 L 470.52209,12.816185 Z m -29.59476,-48.1936896 27.62996,-15.0926304 27.62994,15.0926304 -27.62994,15.80633 z"
       id="path6241-4"
       style="stroke-width:0.43523383" />
    <path
       style="fill:#3c6cb4;fill-opacity:1;fill-rule:nonzero;stroke:#3c6cb4;stroke-width:0.47211814;stroke-linecap:round;stroke-linejoin:miter;stroke-miterlimit:4;stroke-dasharray:none;stroke-dashoffset:0;stroke-opacity:1"
       d="m 429.14427,-13.346655 c -4.12007,-2.38011 -7.49185,-4.44646 -7.49286,-4.59186 -10e-4,-0.14549 10.06447,-5.91864 22.36776,-12.82953 l 22.36962,-12.56519 -0.12894,9.22754 -0.12894,9.22751 -14.50999,7.9544 c -7.98052,4.37492 -14.61705,7.9432004 -14.74788,7.9294904 -0.13095,-0.014 -3.60884,-1.9722304 -7.72891,-4.3523604 z"
       id="path6755-1"
       inkscape:connector-curvature="0" />
    <path
       style="fill:#3c6cb4;fill-opacity:1;fill-rule:nonzero;stroke:#3c6cb4;stroke-width:0.47211814;stroke-linecap:round;stroke-linejoin:miter;stroke-miterlimit:4;stroke-dasharray:none;stroke-dashoffset:0;stroke-opacity:1"
       d="m 455.05413,1.4841354 c -7.13894,-4.10674 -13.07826,-7.56443 -13.19846,-7.68375 -0.24885,-0.24702 25.92205,-14.6650204 26.65822,-14.6864504 0.46252,-0.014 25.75635,13.6248804 26.55241,14.3169804 0.37887,0.32936 -25.74314,15.59125 -26.60427,15.54367 -0.23555,-0.014 -6.26901,-3.38372 -13.4079,-7.49045 z"
       id="path6757-4"
       inkscape:connector-curvature="0" />
    <path
       style="fill:#3c6cb4;fill-opacity:1;fill-rule:nonzero;stroke:#3c6cb4;stroke-width:0.47211814;stroke-linecap:round;stroke-linejoin:miter;stroke-miterlimit:4;stroke-dasharray:none;stroke-dashoffset:0;stroke-opacity:1"
       d="m 470.65427,27.255495 0.004,-14.2446 11.96934,-6.8451296 c 6.5831,-3.7648 12.68272,-7.22195 13.55469,-7.68253 l 1.58548,-0.8374 v 14.5369696 14.537 l -5.35206,2.90809 c -2.94361,1.59949 -9.04493,4.92506 -13.55851,7.39014 l -8.20646,4.48201 0.004,-14.24455 z"
       id="path6759-0"
       inkscape:connector-curvature="0" />
    <path
       style="fill:#3c6cb4;fill-opacity:1;fill-rule:nonzero;stroke:#3c6cb4;stroke-width:0.47211814;stroke-linecap:round;stroke-linejoin:miter;stroke-miterlimit:4;stroke-dasharray:none;stroke-dashoffset:0;stroke-opacity:1"
       d="m 452.46023,33.892125 -13.19503,-7.19095 -0.006,-14.55571 c -0.004,-8.0056896 0.1661,-14.4849596 0.37731,-14.3983896 0.21128,0.0865 6.3125,3.54825 13.55853,7.69268 l 13.17454,7.5353796 v 14.06223 c 0,7.73418 -0.16047,14.05845 -0.3568,14.05394 -0.19642,-0.004 -6.29457,-3.24418 -13.55186,-7.19918 z"
       id="path6761-7"
       inkscape:connector-curvature="0" />
    <path
       style="fill:#3c6cb4;fill-opacity:1;fill-rule:nonzero;stroke:#3c6cb4;stroke-width:0.47211814;stroke-linecap:round;stroke-linejoin:miter;stroke-miterlimit:4;stroke-dasharray:none;stroke-dashoffset:0;stroke-opacity:1"
       d="m 418.79515,11.548045 v -25.77488 l 1.54614,0.8922 c 0.85035,0.49068 4.49241,2.57809 8.09346,4.6386204 l 6.54726,3.7465 -0.12453,16.7394096 -0.12492,16.73939 -7.61176,4.3874 c -4.18651,2.41304 -7.77237,4.39162 -7.96862,4.39683 -0.19642,0.006 -0.35679,-11.5893 -0.35679,-25.76547 z"
       id="path6763-3"
       inkscape:connector-curvature="0" />
    <path
       style="fill:#3c6cb4;fill-opacity:1;fill-rule:nonzero;stroke:#3c6cb4;stroke-width:0.47211814;stroke-linecap:round;stroke-linejoin:miter;stroke-miterlimit:4;stroke-dasharray:none;stroke-dashoffset:0;stroke-opacity:1"
       d="m 444.10696,53.009445 c -19.17585,-10.79248 -21.45439,-12.19653 -20.69464,-12.75213 2.29258,-1.6765 15.03806,-8.63654 15.58218,-8.50905 0.34222,0.0803 6.64147,3.43851 13.99832,7.46295 l 13.37607,7.31719 v 9.32354 c 0,5.12795 -0.16048,9.31496 -0.3568,9.30441 -0.19642,-0.01 -10.05355,-5.47664 -21.90513,-12.14691 z"
       id="path6765-2"
       inkscape:connector-curvature="0" />
    <path
       style="fill:#3c6cb4;fill-opacity:1;fill-rule:nonzero;stroke:#3c6cb4;stroke-width:0.47211814;stroke-linecap:round;stroke-linejoin:miter;stroke-miterlimit:4;stroke-dasharray:none;stroke-dashoffset:0;stroke-opacity:1"
       d="m 470.65467,55.851985 0.004,-9.32358 13.39283,-7.31719 c 7.36613,-4.02444 13.68087,-7.3861 14.03287,-7.47036 0.59712,-0.14287 15.65398,8.17697 16.103,8.89795 0.18839,0.30199 -42.49878,24.53671 -43.2192,24.53671 -0.17474,0 -0.31595,-4.19562 -0.31362,-9.32353 z"
       id="path6767-2"
       inkscape:connector-curvature="0" />
    <path
       style="fill:#3c6cb4;fill-opacity:1;fill-rule:nonzero;stroke:#3c6cb4;stroke-width:0.47211814;stroke-linecap:round;stroke-linejoin:miter;stroke-miterlimit:4;stroke-dasharray:none;stroke-dashoffset:0;stroke-opacity:1"
       d="m 509.89888,32.872015 -7.61184,-4.41146 -0.1183,-16.69432 -0.11829,-16.6942596 5.79935,-3.30456 c 3.18965,-1.8175104 6.82882,-3.8930304 8.08697,-4.6123304 l 2.28766,-1.30775 v 25.7378 c 0,14.1558 -0.16047,25.72891 -0.35677,25.71805 -0.19643,-0.01 -3.78213,-2.00486 -7.96864,-4.43117 z"
       id="path6769-4"
       inkscape:connector-curvature="0" />
    <path
       style="fill:#3c6cb4;fill-opacity:1;fill-rule:nonzero;stroke:#3c6cb4;stroke-width:0.47211814;stroke-linecap:round;stroke-linejoin:miter;stroke-miterlimit:4;stroke-dasharray:none;stroke-dashoffset:0;stroke-opacity:1"
       d="m 485.39837,-16.961015 -14.50998,-7.95403 -0.12914,-9.30465 -0.12934,-9.30463 1.08065,0.69195 c 0.59437,0.38059 10.66085,6.06567 22.36993,12.63351 11.70911,6.56783 21.28927,12.07922 21.28927,12.24752 0,0.27797 -14.97219,9.0548404 -15.31477,8.9775404 -0.0803,-0.0161 -6.67619,-3.6124704 -14.6567,-7.9872104 z"
       id="path6771-0"
       inkscape:connector-curvature="0" />
    <circle
       cx="102.81217"
       cy="43.238029"
       r="7.2843461"
       id="circle3885-2"
       style="fill:#3c6cb4;fill-opacity:1;stroke-width:0.26458335" />
    <path
       inkscape:connector-curvature="0"
       d="m 130.47985,31.225231 c -1.40578,-0.511167 -2.87541,-1.022357 -4.40896,-1.469645 0.38339,-1.533546 0.70286,-3.067093 0.95848,-4.536738 1.34184,-8.434507 -0.12768,-14.377012 -4.21727,-16.677332 -1.21405,-0.7028705 -2.55592,-1.0223553 -4.08946,-1.0223553 -4.47284,0 -10.15974,3.3226753 -15.91054,8.8817943 -5.750797,-5.559119 -11.437695,-8.8817943 -15.910553,-8.8817943 -1.533546,0 -2.875388,0.3194848 -4.089449,1.0223553 -4.089453,2.364223 -5.559119,8.306727 -4.217253,16.677332 0.255582,1.469645 0.575067,3.003192 0.958454,4.536738 -1.533547,0.447288 -3.003192,0.894578 -4.408935,1.469645 -7.98722,3.067093 -12.332276,7.284346 -12.332276,12.01279 0,4.728444 4.408957,8.945697 12.332276,12.01279 1.405743,0.511165 2.875388,1.022356 4.408935,1.469645 -0.383387,1.533546 -0.702872,3.067094 -0.958454,4.536739 -1.341866,8.434505 0.12776,14.376989 4.217253,16.677309 1.214061,0.702893 2.555903,1.022376 4.089449,1.022376 4.536736,0 10.223658,-3.322696 15.910553,-8.881793 5.7508,5.559097 11.4377,8.881793 15.91054,8.881793 1.53354,0 2.87541,-0.319483 4.08946,-1.022376 4.08946,-2.3642 5.55911,-8.306705 4.21727,-16.677309 -0.25562,-1.469645 -0.57509,-3.003193 -0.95848,-4.536739 1.53355,-0.447289 3.00318,-0.894577 4.40896,-1.469645 7.98722,-3.067093 12.33224,-7.284346 12.33224,-12.01279 0,-4.728444 -4.34502,-8.945697 -12.33224,-12.01279 z m -9.45689,-19.488817 c 2.6198,1.533546 3.51438,6.26199 2.42812,12.971243 -0.19176,1.341866 -0.51118,2.747609 -0.89458,4.217254 -3.32267,-0.766773 -6.83705,-1.27794 -10.54312,-1.597449 -2.17254,-3.067093 -4.40896,-5.814677 -6.64537,-8.306702 4.72844,-4.664542 9.52076,-7.859415 13.41853,-7.859415 0.83067,0 1.59745,0.191754 2.23642,0.575069 z m -7.15655,37.891376 c -1.15016,2.044738 -2.49202,4.089474 -3.89776,6.134186 -2.36423,0.191756 -4.72845,0.255608 -7.15655,0.255608 -2.49202,0 -4.856245,-0.064 -7.156564,-0.255608 -1.405744,-2.044712 -2.683707,-4.089448 -3.833867,-6.134186 -1.214037,-2.108615 -2.364197,-4.281154 -3.386578,-6.389769 1.022381,-2.108639 2.172541,-4.281156 3.386578,-6.38977 1.15016,-2.044737 2.492026,-4.089473 3.897768,-6.134187 2.364223,-0.191753 4.728443,-0.255606 7.156563,-0.255606 2.49201,0 4.85623,0.064 7.15655,0.255606 1.40574,2.044714 2.6837,4.08945 3.83386,6.134187 1.21407,2.108614 2.36423,4.281131 3.38658,6.38977 -1.08626,2.108615 -2.17251,4.217253 -3.38658,6.389769 z m 5.30352,-2.108615 c 0.95847,2.23642 1.72525,4.408935 2.42812,6.581476 -2.17254,0.511167 -4.47286,0.894552 -6.90096,1.214037 0.76677,-1.214037 1.59745,-2.492 2.30032,-3.833866 0.76677,-1.341842 1.46964,-2.683706 2.17252,-3.961647 z M 102.8121,64.835477 c -1.53354,-1.661349 -3.003189,-3.450479 -4.408955,-5.303535 1.469645,0.064 2.939315,0.12776 4.408955,0.12776 1.46965,0 2.93929,-0.064 4.40894,-0.12776 -1.40575,1.853056 -2.87539,3.642186 -4.40894,5.303535 z M 90.927117,55.250811 c -2.428124,-0.319508 -4.728444,-0.702896 -6.900958,-1.214062 0.702872,-2.108639 1.469645,-4.345057 2.4281,-6.581475 0.702892,1.277964 1.405764,2.619806 2.172537,3.897769 0.766773,1.405743 1.533548,2.619805 2.300321,3.897768 z M 86.454259,38.956865 c -0.958455,-2.236417 -1.725228,-4.408933 -2.4281,-6.581474 2.172514,-0.511166 4.472834,-0.894552 6.900958,-1.214061 -0.766773,1.214061 -1.597449,2.492024 -2.300321,3.833866 -0.766773,1.341866 -1.469645,2.683706 -2.172537,3.961669 z M 102.8121,21.640564 c 1.53355,1.661351 3.00319,3.45048 4.40894,5.303513 -1.46965,-0.06376 -2.93929,-0.12776 -4.40894,-0.12776 -1.46964,0 -2.93931,0.064 -4.408955,0.12776 1.405766,-1.853033 2.875415,-3.642162 4.408955,-5.303513 z m 14.18531,13.418533 -2.30032,-3.833866 c 2.4281,0.319485 4.72842,0.702872 6.90096,1.214062 -0.70287,2.108639 -1.46965,4.345057 -2.42812,6.581475 -0.70288,-1.341866 -1.40575,-2.683706 -2.17252,-3.961671 z M 82.173125,24.707657 c -1.08628,-6.709253 -0.191753,-11.437697 2.428101,-12.971243 0.638992,-0.383387 1.405765,-0.575069 2.23642,-0.575069 3.833863,0 8.626209,3.130972 13.418534,7.859415 -2.236422,2.428124 -4.47284,5.239609 -6.645357,8.306702 -3.706087,0.319509 -7.220444,0.894578 -10.543143,1.597449 -0.383387,-1.469645 -0.638969,-2.875388 -0.894555,-4.217254 z M 66.390371,43.238021 c 0,-3.003192 3.642162,-6.198089 10.031955,-8.56231 1.277941,-0.511166 2.683706,-0.958454 4.089452,-1.341842 1.022355,3.194873 2.30032,6.581475 3.833866,9.968055 -1.533546,3.386578 -2.875412,6.709253 -3.833866,9.90415 -8.817896,-2.555903 -14.121407,-6.389769 -14.121407,-9.968053 z m 18.210855,31.501606 c -2.619806,-1.533548 -3.514381,-6.261988 -2.428101,-12.971244 0.191754,-1.341864 0.511168,-2.747608 0.894555,-4.217251 3.322699,0.766773 6.837056,1.277939 10.543143,1.597424 2.172517,3.067093 4.408935,5.814701 6.645357,8.306726 -4.728424,4.664541 -9.520769,7.859412 -13.418534,7.859412 -0.830655,0 -1.597428,-0.191754 -2.23642,-0.575067 z M 123.45108,61.768383 c 1.08626,6.709256 0.19176,11.437696 -2.42812,12.971244 -0.63897,0.383385 -1.40575,0.575067 -2.23642,0.575067 -3.83387,0 -8.62619,-3.130989 -13.41853,-7.859412 2.23641,-2.428124 4.47283,-5.239633 6.64537,-8.306726 3.70607,-0.319485 7.22045,-0.894554 10.54312,-1.597424 0.3834,1.469643 0.639,2.875387 0.89458,4.217251 z m 5.7508,-9.968052 c -1.27797,0.511166 -2.68371,0.958455 -4.08946,1.341842 -1.02236,-3.194898 -2.30032,-6.581476 -3.83386,-9.968054 1.53354,-3.386578 2.8754,-6.709254 3.83386,-9.90415 8.81791,2.555902 14.12141,6.389768 14.12141,9.968052 0,3.003191 -3.70608,6.198089 -10.03195,8.56231 z"
       id="path3887-7"
       style="stroke-width:0.26458335" />
    <path
       style="fill:#3c6cb4;fill-opacity:1;fill-rule:nonzero;stroke:none;stroke-width:0.26458335"
       d="m 84.066802,78.261954 c -1.973226,-0.752498 -3.871493,-2.75811 -4.72989,-4.997356 -1.048898,-2.736209 -1.246616,-7.866515 -0.468034,-12.143877 0.899455,-4.941257 1.080242,-4.470833 -2.136197,-5.558636 -6.288335,-2.126728 -11.4291,-5.725273 -12.942312,-9.059735 -2.765117,-6.093011 2.435828,-12.145061 13.631637,-15.86233 2.106612,-0.699442 2.346759,-0.869122 2.163192,-1.52821 -0.819275,-2.941559 -1.298781,-7.319508 -1.14407,-10.44519 0.270122,-5.456673 1.734619,-8.480128 4.862668,-10.0388864 4.229256,-2.1075283 9.899177,-0.2289456 16.60249,5.5007224 1.470614,1.257026 2.796224,2.284792 2.945784,2.283946 0.14949,-8.93e-4 1.20766,-0.835578 2.35133,-1.85489 10.21378,-9.1034236 19.16648,-9.0137292 21.53989,0.215904 0.43022,1.673039 0.51118,3.137853 0.35875,6.492529 -0.10816,2.382624 -0.34698,4.877885 -0.53054,5.545015 -0.89344,3.247471 -1.09237,2.912288 2.46212,4.148496 4.44183,1.544801 7.65477,3.303598 9.99805,5.473071 2.46708,2.284092 3.47688,4.256183 3.47688,6.790182 0,4.843327 -4.48198,9.005372 -13.14438,12.20609 -2.4481,0.904576 -3.50989,1.458945 -3.39047,1.770195 0.74004,1.928503 1.29826,6.94163 1.16989,10.506558 -0.1208,3.351513 -0.284,4.288687 -1.02662,5.891596 -1.69459,3.657521 -3.74104,5.008204 -7.6034,5.018294 -2.44534,0.0072 -2.86274,-0.107952 -5.8916,-1.6151 -1.98984,-0.99007 -4.40744,-2.586523 -6.2056,-4.097879 -1.6202,-1.361738 -3.14261,-2.559693 -3.38317,-2.662115 -0.24054,-0.1024 -1.41019,0.666453 -2.59923,1.708614 -6.34997,5.565515 -12.304695,7.86236 -16.367168,6.313092 z m 6.363566,-3.576588 c 1.893,-0.719299 5.944172,-3.456497 8.441148,-5.703348 l 1.639104,-1.474909 -2.178357,-2.609711 c -1.198099,-1.43535 -2.698439,-3.333882 -3.334051,-4.218967 -1.0197,-1.41992 -1.34358,-1.632901 -2.75309,-1.810502 -0.878589,-0.110608 -3.312921,-0.487354 -5.409627,-0.837028 -2.096731,-0.349672 -3.837295,-0.616269 -3.867967,-0.592432 -0.373339,0.290143 -1.22807,6.390809 -1.268523,9.054011 -0.06979,4.591633 1.031103,7.695435 3.01329,8.495875 1.265695,0.511094 3.949882,0.368845 5.718073,-0.302989 z M 121.6137,74.453523 c 1.70376,-1.433636 2.30968,-3.560338 2.26828,-7.961134 -0.0426,-4.524374 -0.97384,-9.336088 -1.74932,-9.038507 -0.27111,0.104096 -2.70039,0.511626 -5.39839,0.905807 -3.63304,0.530752 -5.01518,0.869413 -5.32844,1.305616 -0.93592,1.303152 -3.50858,4.588709 -4.78512,6.111098 l -1.3552,1.616189 1.52848,1.558181 c 1.7472,1.781184 6.40718,4.970482 8.45976,5.789902 0.76243,0.304365 2.27103,0.561422 3.35241,0.571251 1.6131,0.01456 2.15315,-0.139584 3.00754,-0.858403 z m -14.85548,-14.019397 0.74504,-1.046288 h -4.52894 c -2.49091,0 -4.528937,0.10216 -4.528937,0.227254 0,0.299899 1.592937,2.382407 3.105857,4.060396 l 1.20983,1.341817 1.62605,-1.768408 c 0.89433,-0.972632 1.96134,-2.239269 2.3711,-2.814723 z m 1.97646,-4.510172 c 1.45156,-0.0018 1.45238,-0.0024 3.31778,-3.034224 1.02622,-1.667823 2.66549,-4.519086 3.64284,-6.336108 l 1.77695,-3.303671 -1.75003,-3.281041 c -0.96251,-1.804586 -2.59205,-4.623075 -3.62117,-6.263319 l -1.87112,-2.982253 -2.34,-0.220974 c -2.97271,-0.280749 -7.23252,-0.282633 -10.176881,-0.0048 l -2.291868,0.216628 -2.079899,3.333302 c -1.143954,1.833325 -2.742127,4.650898 -3.551525,6.261266 l -1.47165,2.927964 0.933555,1.923936 c 0.513437,1.058171 2.119989,3.906341 3.570097,6.329249 l 2.636565,4.405312 2.619877,0.14008 c 1.440907,0.07704 4.101409,0.08381 5.912219,0.01456 1.81079,-0.06859 3.94571,-0.125584 4.74426,-0.126544 v 0 z m 9.51311,-1.052087 c 1.4561,-0.231601 2.84914,-0.545507 3.09562,-0.697824 0.34989,-0.216387 0.19054,-0.966592 -0.72681,-3.423189 -0.64623,-1.730421 -1.28202,-3.146234 -1.41286,-3.146234 -0.24745,0 -4.21197,6.777769 -4.40838,7.536572 -0.0616,0.23764 0.0944,0.368872 0.34658,0.29176 0.2521,-0.07704 1.64973,-0.329603 3.10585,-0.561085 z M 88.809784,51.226664 c -1.807847,-3.181373 -2.340145,-3.884921 -2.594855,-3.429759 -0.51513,0.92049 -2.362967,6.123657 -2.22408,6.26257 0.25358,0.253578 4.610759,1.100893 5.835399,1.134776 l 1.257942,0.03477 z m -7.222353,-0.631048 c 0.498707,-1.404729 1.363459,-3.624726 1.921693,-4.933287 0.969272,-2.272065 0.991179,-2.434113 0.486555,-3.597458 -0.290622,-0.670028 -1.177064,-2.948951 -1.969845,-5.064279 l -1.441413,-3.846014 -2.766058,0.92788 c -7.021207,2.355261 -11.603445,5.914998 -11.603445,9.014163 0,2.19133 2.235959,4.826108 5.775289,6.805396 2.223404,1.243405 7.149951,3.201418 8.128982,3.230785 0.390222,0.012 0.838184,-0.762426 1.468242,-2.537186 z m 46.728469,1.649998 c 3.1912,-1.138856 6.67996,-2.946461 8.36073,-4.331893 1.46803,-1.210077 2.66333,-3.302221 2.66333,-4.661596 0,-3.236291 -4.25974,-6.704714 -11.22658,-9.141025 -1.69529,-0.592842 -3.1167,-1.035373 -3.1587,-0.983402 -0.0421,0.05192 -0.4267,1.160908 -0.8549,2.464253 -0.4282,1.30337 -1.28702,3.539087 -1.90848,4.968305 l -1.12994,2.598528 1.1097,2.656127 c 0.61036,1.460879 1.47685,3.708817 1.92556,4.995449 0.44872,1.286609 1.01163,2.339299 1.25094,2.339299 0.23933,0 1.57506,-0.406813 2.96834,-0.904045 z M 88.957632,34.868431 c 1.191264,-2.041429 2.124094,-3.753567 2.072896,-3.804741 -0.174848,-0.17485 -6.620188,1.011199 -6.893204,1.268351 -0.228704,0.21542 1.42221,5.318992 2.048381,6.332148 0.279179,0.451707 0.349528,0.355371 2.771927,-3.795758 z m 31.642548,0.91892 c 0.96546,-2.605339 1.08423,-3.206658 0.68355,-3.460357 -0.26671,-0.168811 -0.56292,-0.312553 -0.65824,-0.319267 -0.0954,-0.0072 -1.4674,-0.222667 -3.0491,-0.479819 -2.05853,-0.3347 -2.84648,-0.357354 -2.77253,-0.0797 0.19417,0.729147 4.16139,7.492425 4.39488,7.492425 0.128,0 0.75875,-1.418978 1.40144,-3.153262 z M 87.008772,28.396574 c 1.620173,-0.270315 3.805007,-0.588254 4.855137,-0.706542 1.66444,-0.187406 2.011094,-0.36356 2.702592,-1.372706 0.436275,-0.636699 1.953908,-2.540616 3.372498,-4.230898 l 2.579281,-3.073252 -1.642924,-1.487636 c -7.41442,-6.713529 -13.503998,-8.2934207 -16.019981,-4.156201 -1.478581,2.431359 -1.61525,7.868687 -0.344384,13.701455 0.454385,2.085405 0.270169,2.031115 4.497781,1.32578 z M 122.82455,28.28379 c 0.76738,-2.797334 1.04512,-4.984123 1.06738,-8.404173 0.0242,-3.591953 -0.0597,-4.154825 -0.84048,-5.700302 -0.47651,-0.943142 -1.29442,-2.025634 -1.81752,-2.405519 -1.98151,-1.438998 -6.2495,-0.475206 -10.18487,2.299957 -2.21149,1.559509 -5.67238,4.554876 -5.67238,4.909379 0,0.224598 4.44146,5.893311 5.89159,7.519546 0.78612,0.881632 1.25121,1.023348 5.01948,1.529538 2.28421,0.306854 4.22064,0.625447 4.30318,0.707992 0.43099,0.430987 2.08277,0.09346 2.23362,-0.456418 z m -16.29156,-2.452054 c -0.54067,-0.729124 -1.56337,-1.9996 -2.27266,-2.823223 -1.14652,-1.331312 -1.35477,-1.443805 -1.87641,-1.013591 -0.91243,0.752525 -3.938537,4.466606 -3.938537,4.83398 0,0.190306 1.908387,0.328567 4.535317,0.328567 h 4.53531 z"
       id="path4407-6-0"
       inkscape:connector-curvature="0" />
    <circle
       cx="338.9433"
       cy="454.63727"
       r="7.2843456"
       id="circle3885-9"
       style="fill:#3c6cb4;fill-opacity:1;stroke-width:0.26458332" />
    <path
       inkscape:connector-curvature="0"
       d="m 366.61099,442.62448 c -1.40577,-0.51116 -2.87541,-1.02235 -4.40896,-1.46964 0.38339,-1.53355 0.70287,-3.06709 0.95848,-4.53674 1.34184,-8.4345 -0.12775,-14.37701 -4.21725,-16.67733 -1.21406,-0.70287 -2.55593,-1.02235 -4.08947,-1.02235 -4.47284,0 -10.15974,3.32267 -15.91054,8.88179 -5.7508,-5.55912 -11.43769,-8.88179 -15.91055,-8.88179 -1.53355,0 -2.87539,0.31948 -4.08945,1.02235 -4.08945,2.36422 -5.55912,8.30673 -4.21726,16.67733 0.25559,1.46965 0.57507,3.00319 0.95846,4.53674 -1.53355,0.44729 -3.00319,0.89458 -4.40894,1.46964 -7.98721,3.0671 -12.33227,7.28435 -12.33227,12.01279 0,4.72845 4.40896,8.9457 12.33227,12.01279 1.40575,0.51117 2.87539,1.02236 4.40894,1.46965 -0.38339,1.53354 -0.70287,3.06709 -0.95846,4.53673 -1.34186,8.43451 0.12776,14.37699 4.21726,16.67731 1.21406,0.70289 2.5559,1.02238 4.08945,1.02238 4.53673,0 10.22366,-3.3227 15.91055,-8.88179 5.7508,5.55909 11.4377,8.88179 15.91054,8.88179 1.53354,0 2.87541,-0.31949 4.08947,-1.02238 4.08945,-2.3642 5.55909,-8.3067 4.21725,-16.67731 -0.25561,-1.46964 -0.57509,-3.00319 -0.95848,-4.53673 1.53355,-0.44729 3.00319,-0.89458 4.40896,-1.46965 7.98722,-3.06709 12.33225,-7.28434 12.33225,-12.01279 0,-4.72844 -4.34503,-8.94569 -12.33225,-12.01279 z m -9.45689,-19.48881 c 2.61981,1.53354 3.51439,6.26199 2.42813,12.97124 -0.19176,1.34187 -0.51119,2.74761 -0.89458,4.21725 -3.32267,-0.76677 -6.83706,-1.27794 -10.54312,-1.59744 -2.17254,-3.0671 -4.40896,-5.81468 -6.64537,-8.30671 4.72844,-4.66454 9.52076,-7.85941 13.41853,-7.85941 0.83067,0 1.59745,0.19175 2.23641,0.57507 z m -7.15654,37.89137 c -1.15016,2.04474 -2.49202,4.08947 -3.89777,6.13419 -2.36422,0.19175 -4.72844,0.2556 -7.15654,0.2556 -2.49202,0 -4.85624,-0.064 -7.15656,-0.2556 -1.40575,-2.04472 -2.68371,-4.08945 -3.83387,-6.13419 -1.21404,-2.10861 -2.3642,-4.28115 -3.38658,-6.38977 1.02238,-2.10864 2.17254,-4.28115 3.38658,-6.38977 1.15016,-2.04473 2.49203,-4.08947 3.89777,-6.13418 2.36422,-0.19176 4.72844,-0.25561 7.15656,-0.25561 2.49201,0 4.85623,0.064 7.15655,0.25561 1.40574,2.04471 2.6837,4.08945 3.83386,6.13418 1.21406,2.10862 2.36422,4.28113 3.38658,6.38977 -1.08626,2.10862 -2.17252,4.21726 -3.38658,6.38977 z m 5.30351,-2.10861 c 0.95848,2.23641 1.72526,4.40893 2.42813,6.58147 -2.17254,0.51117 -4.47286,0.89455 -6.90096,1.21404 0.76677,-1.21404 1.59745,-2.492 2.30032,-3.83387 0.76677,-1.34184 1.46964,-2.6837 2.17251,-3.96164 z m -16.35782,17.3163 c -1.53354,-1.66135 -3.00319,-3.45048 -4.40896,-5.30354 1.46965,0.064 2.93932,0.12776 4.40896,0.12776 1.46965,0 2.93929,-0.064 4.40894,-0.12776 -1.40575,1.85306 -2.87539,3.64219 -4.40894,5.30354 z m -11.88498,-9.58467 c -2.42813,-0.31951 -4.72845,-0.70289 -6.90096,-1.21406 0.70287,-2.10864 1.46964,-4.34506 2.4281,-6.58147 0.70289,1.27796 1.40576,2.6198 2.17254,3.89776 0.76677,1.40575 1.53354,2.61981 2.30032,3.89777 z m -4.47286,-16.29394 c -0.95846,-2.23642 -1.72523,-4.40894 -2.4281,-6.58148 2.17251,-0.51116 4.47283,-0.89455 6.90096,-1.21406 -0.76678,1.21406 -1.59745,2.49203 -2.30032,3.83387 -0.76678,1.34186 -1.46965,2.6837 -2.17254,3.96167 z m 16.35784,-17.3163 c 1.53355,1.66135 3.00319,3.45048 4.40894,5.30351 -1.46965,-0.0638 -2.93929,-0.12776 -4.40894,-0.12776 -1.46964,0 -2.93931,0.064 -4.40896,0.12776 1.40577,-1.85303 2.87542,-3.64216 4.40896,-5.30351 z m 14.18531,13.41853 -2.30032,-3.83387 c 2.4281,0.31949 4.72842,0.70288 6.90096,1.21407 -0.70287,2.10863 -1.46965,4.34505 -2.42813,6.58147 -0.70287,-1.34187 -1.40574,-2.68371 -2.17251,-3.96167 z m -34.82428,-10.35144 c -1.08629,-6.70925 -0.19176,-11.4377 2.4281,-12.97124 0.63899,-0.38339 1.40576,-0.57507 2.23641,-0.57507 3.83387,0 8.62622,3.13097 13.41854,7.85941 -2.23642,2.42813 -4.47284,5.23961 -6.64536,8.30671 -3.70608,0.3195 -7.22044,0.89457 -10.54314,1.59744 -0.38339,-1.46964 -0.63897,-2.87538 -0.89455,-4.21725 z m -15.78276,18.53036 c 0,-3.00319 3.64216,-6.19809 10.03196,-8.56231 1.27794,-0.51116 2.6837,-0.95845 4.08945,-1.34184 1.02235,3.19487 2.30032,6.58148 3.83386,9.96805 -1.53354,3.38658 -2.87541,6.70926 -3.83386,9.90415 -8.8179,-2.5559 -14.12141,-6.38976 -14.12141,-9.96805 z m 18.21086,31.50161 c -2.61981,-1.53355 -3.51439,-6.26199 -2.4281,-12.97125 0.19175,-1.34186 0.51116,-2.7476 0.89455,-4.21725 3.3227,0.76677 6.83706,1.27794 10.54314,1.59742 2.17252,3.0671 4.40894,5.81471 6.64536,8.30673 -4.72842,4.66454 -9.52077,7.85941 -13.41854,7.85941 -0.83065,0 -1.59742,-0.19175 -2.23641,-0.57506 z m 38.84985,-12.97125 c 1.08626,6.70926 0.19175,11.4377 -2.42813,12.97125 -0.63896,0.38338 -1.40574,0.57506 -2.23641,0.57506 -3.83387,0 -8.62619,-3.13099 -13.41853,-7.85941 2.23641,-2.42812 4.47283,-5.23963 6.64537,-8.30673 3.70606,-0.31948 7.22045,-0.89455 10.54312,-1.59742 0.38339,1.46965 0.639,2.87539 0.89458,4.21725 z m 5.7508,-9.96805 c -1.27797,0.51117 -2.68371,0.95846 -4.08945,1.34184 -1.02238,-3.19489 -2.30032,-6.58147 -3.83387,-9.96805 1.53355,-3.38658 2.87539,-6.70925 3.83387,-9.90415 8.81789,2.5559 14.1214,6.38977 14.1214,9.96805 0,3.00319 -3.70609,6.19809 -10.03195,8.56231 z"
       id="path3887-3"
       style="stroke-width:0.26458332" />
    <path
       style="fill:#3c6cb4;fill-opacity:1;fill-rule:nonzero;stroke:none;stroke-width:0.26458332"
       d="m 320.19795,489.6612 c -1.97322,-0.7525 -3.87149,-2.75811 -4.72989,-4.99735 -1.0489,-2.73621 -1.24661,-7.86652 -0.46803,-12.14388 0.89945,-4.94126 1.08024,-4.47083 -2.1362,-5.55864 -6.28833,-2.12672 -11.4291,-5.72527 -12.94231,-9.05973 -2.76511,-6.09301 2.43583,-12.14506 13.63164,-15.86233 2.10661,-0.69944 2.34676,-0.86912 2.16319,-1.52821 -0.81928,-2.94156 -1.29878,-7.3195 -1.14407,-10.44519 0.27012,-5.45667 1.73462,-8.48012 4.86267,-10.03888 4.22925,-2.10753 9.89917,-0.22895 16.60249,5.50072 1.47061,1.25703 2.79622,2.28479 2.94578,2.28395 0.14949,-9e-4 1.20766,-0.83558 2.35133,-1.85489 10.21378,-9.10343 19.16648,-9.01373 21.53988,0.2159 0.43023,1.67304 0.51119,3.13785 0.35875,6.49253 -0.10819,2.38262 -0.34697,4.87788 -0.53054,5.54501 -0.89344,3.24747 -1.09236,2.91229 2.46213,4.1485 4.44183,1.5448 7.65477,3.3036 9.99805,5.47307 2.46708,2.28409 3.47687,4.25618 3.47687,6.79018 0,4.84333 -4.48198,9.00537 -13.14437,12.20609 -2.4481,0.90457 -3.50989,1.45895 -3.39047,1.77019 0.74004,1.92851 1.29825,6.94163 1.16989,10.50656 -0.12075,3.35151 -0.28401,4.28869 -1.02663,5.8916 -1.69458,3.65752 -3.74103,5.0082 -7.60339,5.01829 -2.44535,0.007 -2.86274,-0.10795 -5.8916,-1.6151 -1.98984,-0.99007 -4.40744,-2.58653 -6.2056,-4.09788 -1.6202,-1.36174 -3.14261,-2.55969 -3.38317,-2.66211 -0.24054,-0.1024 -1.41019,0.66645 -2.59923,1.70861 -6.34997,5.56552 -12.30469,7.86236 -16.36717,6.31309 z m 6.36357,-3.57659 c 1.893,-0.71929 5.94417,-3.45649 8.44115,-5.70334 l 1.6391,-1.47491 -2.17836,-2.60971 c -1.1981,-1.43535 -2.69843,-3.33388 -3.33405,-4.21897 -1.0197,-1.41992 -1.34358,-1.6329 -2.75309,-1.8105 -0.87859,-0.11061 -3.31292,-0.48736 -5.40963,-0.83703 -2.09673,-0.34967 -3.83729,-0.61627 -3.86796,-0.59243 -0.37334,0.29014 -1.22807,6.39081 -1.26852,9.05401 -0.0698,4.59163 1.0311,7.69543 3.01328,8.49587 1.2657,0.51109 3.94989,0.36885 5.71808,-0.30299 z m 31.18333,-0.23184 c 1.70375,-1.43364 2.30969,-3.56034 2.26827,-7.96114 -0.0425,-4.52437 -0.97384,-9.33608 -1.74931,-9.0385 -0.27111,0.10409 -2.70039,0.51162 -5.39839,0.9058 -3.63304,0.53076 -5.01518,0.86942 -5.32844,1.30562 -0.93592,1.30315 -3.50858,4.58871 -4.78512,6.1111 l -1.3552,1.61619 1.52848,1.55818 c 1.7472,1.78118 6.40718,4.9705 8.45976,5.78992 0.76243,0.30434 2.27103,0.56142 3.35241,0.57125 1.6131,0.0145 2.15315,-0.13959 3.00754,-0.85842 z m -14.85548,-14.01939 0.74504,-1.04629 h -4.52894 c -2.49091,0 -4.52894,0.10215 -4.52894,0.22725 0,0.2999 1.59294,2.38241 3.10586,4.0604 l 1.20983,1.34181 1.62605,-1.7684 c 0.89433,-0.97263 1.96134,-2.23927 2.3711,-2.81473 z m 1.97646,-4.51018 c 1.45156,-0.002 1.45238,-0.002 3.31778,-3.03422 1.02622,-1.66782 2.66549,-4.51908 3.64283,-6.33611 l 1.77696,-3.30367 -1.75003,-3.28104 c -0.96251,-1.80458 -2.59205,-4.62307 -3.62117,-6.26332 l -1.87112,-2.98225 -2.34,-0.22097 c -2.97271,-0.28075 -7.23252,-0.28264 -10.17688,-0.005 l -2.29187,0.21662 -2.0799,3.33331 c -1.14395,1.83332 -2.74212,4.65089 -3.55152,6.26126 l -1.47165,2.92796 0.93355,1.92394 c 0.51344,1.05817 2.11999,3.90634 3.5701,6.32925 l 2.63656,4.40531 2.61988,0.14007 c 1.44091,0.077 4.10141,0.0838 5.91222,0.0145 1.81079,-0.0686 3.94571,-0.12558 4.74426,-0.12655 v 0 z m 9.51311,-1.05208 c 1.4561,-0.2316 2.84914,-0.54551 3.09562,-0.69783 0.34989,-0.21638 0.19054,-0.96659 -0.72681,-3.42319 -0.64624,-1.73042 -1.28202,-3.14623 -1.41287,-3.14623 -0.24744,0 -4.21196,6.77777 -4.40837,7.53657 -0.0616,0.23764 0.0944,0.36888 0.34658,0.29176 0.2521,-0.077 1.64973,-0.3296 3.10585,-0.56108 z m -29.43801,-3.64521 c -1.80784,-3.18137 -2.34014,-3.88492 -2.59485,-3.42975 -0.51513,0.92049 -2.36297,6.12365 -2.22408,6.26257 0.25358,0.25357 4.61076,1.10089 5.8354,1.13477 l 1.25794,0.0348 z m -7.22235,-0.63104 c 0.49871,-1.40473 1.36346,-3.62473 1.92169,-4.93329 0.96928,-2.27206 0.99118,-2.43411 0.48656,-3.59746 -0.29062,-0.67003 -1.17706,-2.94895 -1.96985,-5.06428 l -1.44141,-3.84601 -2.76606,0.92788 c -7.0212,2.35526 -11.60344,5.915 -11.60344,9.01416 0,2.19133 2.23596,4.82611 5.77529,6.8054 2.2234,1.2434 7.14995,3.20142 8.12898,3.23078 0.39022,0.0121 0.83818,-0.76242 1.46824,-2.53718 z m 46.72847,1.65 c 3.1912,-1.13886 6.67996,-2.94647 8.36072,-4.3319 1.46803,-1.21008 2.66333,-3.30222 2.66333,-4.66159 0,-3.23629 -4.25974,-6.70472 -11.22658,-9.14103 -1.69528,-0.59284 -3.11669,-1.03537 -3.15869,-0.9834 -0.042,0.0519 -0.42671,1.16091 -0.8549,2.46425 -0.42821,1.30337 -1.28702,3.53909 -1.90848,4.96831 l -1.12995,2.59853 1.10971,2.65612 c 0.61035,1.46088 1.47684,3.70882 1.92556,4.99545 0.44871,1.28661 1.01163,2.3393 1.25094,2.3393 0.23933,0 1.57506,-0.40681 2.96834,-0.90404 z m -39.35827,-17.37719 c 1.19127,-2.04143 2.1241,-3.75356 2.0729,-3.80474 -0.17485,-0.17485 -6.62019,1.0112 -6.89321,1.26835 -0.2287,0.21542 1.42222,5.319 2.04839,6.33215 0.27917,0.45171 0.34952,0.35537 2.77192,-3.79576 z m 31.64255,0.91892 c 0.96546,-2.60534 1.08423,-3.20665 0.68355,-3.46035 -0.26672,-0.16881 -0.56292,-0.31256 -0.65824,-0.31927 -0.0954,-0.007 -1.4674,-0.22267 -3.0491,-0.47982 -2.05853,-0.3347 -2.84648,-0.35735 -2.77253,-0.0797 0.19417,0.72915 4.16139,7.49243 4.39487,7.49243 0.128,0 0.75876,-1.41898 1.40145,-3.15326 z m -33.59141,-7.39077 c 1.62018,-0.27032 3.80501,-0.58826 4.85514,-0.70655 1.66444,-0.1874 2.01109,-0.36355 2.70259,-1.3727 0.43628,-0.6367 1.95391,-2.54062 3.3725,-4.2309 l 2.57928,-3.07325 -1.64292,-1.48764 c -7.41442,-6.71352 -13.504,-8.29342 -16.01999,-4.1562 -1.47858,2.43136 -1.61524,7.86869 -0.34438,13.70146 0.45439,2.0854 0.27017,2.03111 4.49778,1.32578 z m 35.81578,-0.11278 c 0.76737,-2.79734 1.04513,-4.98413 1.06737,-8.40418 0.0241,-3.59195 -0.0597,-4.15482 -0.84048,-5.7003 -0.47651,-0.94314 -1.29441,-2.02563 -1.81751,-2.40552 -1.98151,-1.43899 -6.2495,-0.4752 -10.18487,2.29996 -2.2115,1.55951 -5.67238,4.55487 -5.67238,4.90938 0,0.2246 4.44146,5.89331 5.89159,7.51954 0.78612,0.88164 1.25121,1.02335 5.01948,1.52954 2.28421,0.30686 4.22063,0.62545 4.30318,0.70799 0.43099,0.43099 2.08277,0.0935 2.23362,-0.45641 z m -16.29156,-2.45206 c -0.54067,-0.72912 -1.56337,-1.9996 -2.27266,-2.82322 -1.14652,-1.33132 -1.35477,-1.44381 -1.87641,-1.01359 -0.91243,0.75252 -3.93854,4.4666 -3.93854,4.83398 0,0.1903 1.90839,0.32856 4.53532,0.32856 h 4.53531 z"
       id="path4407-6-1"
       inkscape:connector-curvature="0" />
    <circle
       cx="-489.09396"
       cy="335.5437"
       r="4.5527158"
       id="circle3885-5"
       style="fill:#3c6cb4;fill-opacity:1;stroke-width:0.26458332" />
    <path
       inkscape:connector-curvature="0"
       d="m -471.80166,328.03573 c -0.8786,-0.31948 -1.79713,-0.63897 -2.7556,-0.91853 0.23962,-0.95846 0.4393,-1.91693 0.59905,-2.83546 0.83865,-5.27156 -0.0798,-8.98563 -2.63578,-10.42333 -0.75879,-0.43929 -1.59746,-0.63897 -2.55592,-0.63897 -2.79553,0 -6.34984,2.07667 -9.94409,5.55112 -3.59425,-3.47445 -7.14856,-5.55112 -9.94409,-5.55112 -0.95847,0 -1.79712,0.19968 -2.55591,0.63897 -2.55591,1.47764 -3.47445,5.19171 -2.63578,10.42333 0.15974,0.91853 0.35941,1.877 0.59903,2.83546 -0.95846,0.27956 -1.87699,0.55911 -2.75558,0.91853 -4.99201,1.91693 -7.70767,4.55272 -7.70767,7.50799 0,2.95528 2.7556,5.59106 7.70767,7.508 0.87859,0.31948 1.79712,0.63897 2.75558,0.91853 -0.23962,0.95846 -0.43929,1.91693 -0.59903,2.83546 -0.83867,5.27156 0.0798,8.98561 2.63578,10.42331 0.75879,0.43931 1.59744,0.63899 2.55591,0.63899 2.83546,0 6.38978,-2.07669 9.94409,-5.55112 3.59425,3.47443 7.14856,5.55112 9.94409,5.55112 0.95846,0 1.79713,-0.19968 2.55592,-0.63899 2.5559,-1.47762 3.47443,-5.19169 2.63578,-10.42331 -0.15975,-0.91853 -0.35943,-1.877 -0.59905,-2.83546 0.95847,-0.27956 1.877,-0.55912 2.7556,-0.91853 4.99201,-1.91694 7.70766,-4.55272 7.70766,-7.508 0,-2.95527 -2.71565,-5.59106 -7.70766,-7.50799 z m -5.91055,-12.18051 c 1.63737,0.95847 2.19648,3.91375 1.51757,8.10703 -0.11984,0.83866 -0.31949,1.71725 -0.55911,2.63578 -2.07667,-0.47923 -4.27316,-0.79871 -6.58945,-0.9984 -1.35783,-1.91694 -2.7556,-3.63418 -4.15336,-5.19169 2.95528,-2.91534 5.95048,-4.91214 8.38659,-4.91214 0.51917,0 0.9984,0.11985 1.39776,0.35942 z m -4.47284,23.68211 c -0.71885,1.27796 -1.55752,2.55592 -2.43611,3.83387 -1.47764,0.11984 -2.95527,0.15975 -4.47284,0.15975 -1.55751,0 -3.03515,-0.04 -4.47285,-0.15975 -0.87859,-1.27795 -1.67732,-2.55591 -2.39617,-3.83387 -0.75877,-1.31788 -1.47762,-2.67572 -2.11661,-3.99361 0.63899,-1.31789 1.35784,-2.67572 2.11661,-3.9936 0.71885,-1.27796 1.55752,-2.55592 2.43611,-3.83387 1.47764,-0.11984 2.95528,-0.15975 4.47285,-0.15975 1.5575,0 3.03514,0.04 4.47284,0.15975 0.87859,1.27795 1.67732,2.55591 2.39617,3.83387 0.75879,1.31788 1.47764,2.67571 2.11661,3.9936 -0.67891,1.31789 -1.35782,2.63579 -2.11661,3.99361 z m 3.31469,-1.31788 c 0.59905,1.39776 1.07828,2.75558 1.51758,4.11342 -1.35784,0.31948 -2.79554,0.55909 -4.3131,0.75877 0.47923,-0.75877 0.9984,-1.5575 1.4377,-2.39617 0.47923,-0.83865 0.91853,-1.67731 1.35782,-2.47602 z m -10.22364,10.82268 c -0.95846,-1.03834 -1.87699,-2.15655 -2.75559,-3.31471 0.91852,0.04 1.83707,0.0799 2.75559,0.0799 0.91853,0 1.83706,-0.04 2.75559,-0.0799 -0.87859,1.15816 -1.79712,2.27637 -2.75559,3.31471 z m -7.42811,-5.99041 c -1.51758,-0.1997 -2.95528,-0.43931 -4.3131,-0.75879 0.43929,-1.3179 0.91853,-2.71566 1.51756,-4.11342 0.43931,0.79872 0.87861,1.63738 1.35784,2.4361 0.47923,0.87859 0.95847,1.63738 1.4377,2.43611 z m -2.79554,-10.18372 c -0.59903,-1.39776 -1.07827,-2.75558 -1.51756,-4.11342 1.35782,-0.31948 2.79552,-0.55909 4.3131,-0.75879 -0.47923,0.75879 -0.99841,1.55752 -1.4377,2.39617 -0.47923,0.83867 -0.91853,1.67732 -1.35784,2.47604 z m 10.22365,-10.82268 c 0.95847,1.03834 1.877,2.15655 2.75559,3.31469 -0.91853,-0.0399 -1.83706,-0.0799 -2.75559,-0.0799 -0.91852,0 -1.83707,0.04 -2.75559,0.0799 0.8786,-1.15814 1.79713,-2.27635 2.75559,-3.31469 z m 8.86582,8.38658 -1.4377,-2.39617 c 1.51756,0.19968 2.95526,0.4393 4.3131,0.75879 -0.4393,1.3179 -0.91853,2.71566 -1.51758,4.11342 -0.43929,-0.83866 -0.87859,-1.67731 -1.35782,-2.47604 z m -21.76518,-6.46965 c -0.67892,-4.19328 -0.11984,-7.14856 1.51757,-8.10703 0.39937,-0.23961 0.8786,-0.35942 1.39776,-0.35942 2.39616,0 5.39138,1.95686 8.38658,4.91214 -1.39776,1.51758 -2.79552,3.27475 -4.15335,5.19169 -2.3163,0.19969 -4.51277,0.55911 -6.58946,0.9984 -0.23962,-0.91853 -0.39936,-1.79712 -0.5591,-2.63578 z m -9.86422,11.58147 c 0,-1.87699 2.27635,-3.8738 6.26997,-5.35144 0.79872,-0.31948 1.67732,-0.59903 2.55591,-0.83865 0.63897,1.9968 1.4377,4.11342 2.39617,6.23003 -0.95847,2.11661 -1.79714,4.19329 -2.39617,6.1901 -5.51118,-1.59744 -8.82588,-3.99361 -8.82588,-6.23004 z m 11.38179,19.68851 c -1.63738,-0.95847 -2.19649,-3.91375 -1.51757,-8.10703 0.11985,-0.83867 0.31948,-1.71725 0.5591,-2.63578 2.07669,0.47923 4.27316,0.79871 6.58946,0.99839 1.35783,1.91693 2.75559,3.63419 4.15335,5.1917 -2.95526,2.91534 -5.95048,4.91213 -8.38658,4.91213 -0.51916,0 -0.99839,-0.11984 -1.39776,-0.35941 z m 24.28115,-8.10703 c 0.67891,4.19328 0.11985,7.14856 -1.51757,8.10703 -0.39936,0.23961 -0.87859,0.35941 -1.39776,0.35941 -2.39617,0 -5.39137,-1.95687 -8.38659,-4.91213 1.39776,-1.51758 2.79553,-3.27477 4.15336,-5.1917 2.31629,-0.19968 4.51278,-0.5591 6.58945,-0.99839 0.23962,0.91853 0.39937,1.79711 0.55911,2.63578 z m 3.59425,-6.23003 c -0.79872,0.31948 -1.67731,0.59903 -2.5559,0.83865 -0.63899,-1.99681 -1.4377,-4.11342 -2.39617,-6.23003 0.95847,-2.11662 1.79712,-4.19329 2.39617,-6.1901 5.51118,1.59744 8.82587,3.99361 8.82587,6.23003 0,1.877 -2.3163,3.87381 -6.26997,5.35145 z"
       id="path3887-6"
       style="stroke-width:0.26458332" />
    <path
       style="fill:#3c6cb4;fill-opacity:1;fill-rule:nonzero;stroke:none;stroke-width:0.26458332"
       d="m -500.80981,357.43368 c -1.23327,-0.47031 -2.41968,-1.72382 -2.95618,-3.12335 -0.65556,-1.71013 -0.77914,-4.91657 -0.29252,-7.58992 0.56216,-3.08828 0.67515,-2.79427 -1.33512,-3.47415 -3.93021,-1.3292 -7.14319,-3.57829 -8.08895,-5.66233 -1.72819,-3.80813 1.5224,-7.59066 8.51977,-9.91395 1.31664,-0.43716 1.46673,-0.54321 1.352,-0.95514 -0.51205,-1.83847 -0.81174,-4.57469 -0.71505,-6.52824 0.16883,-3.41042 1.08414,-5.30008 3.03917,-6.2743 2.64329,-1.31721 6.18699,-0.14309 10.37656,3.43795 0.91913,0.78564 1.74764,1.42799 1.84111,1.42747 0.0934,-5.6e-4 0.75479,-0.52224 1.46958,-1.15931 6.38362,-5.68964 11.97905,-5.63358 13.46243,0.13494 0.2689,1.04565 0.31949,1.96116 0.22422,4.05783 -0.0676,1.48914 -0.21686,3.04868 -0.33159,3.46563 -0.5584,2.02967 -0.68273,1.82018 1.53883,2.59281 2.77614,0.9655 4.78423,2.06475 6.24878,3.42067 1.54193,1.42756 2.17305,2.66012 2.17305,4.24387 0,3.02707 -2.80124,5.62835 -8.21524,7.6288 -1.53006,0.56536 -2.19368,0.91184 -2.11904,1.10637 0.46253,1.20532 0.81141,4.33852 0.73118,6.5666 -0.0755,2.09469 -0.1775,2.68043 -0.64164,3.68225 -1.05911,2.28595 -2.33814,3.13012 -4.75212,3.13643 -1.52834,0.005 -1.78921,-0.0675 -3.68225,-1.00944 -1.24365,-0.61879 -2.75465,-1.61658 -3.8785,-2.56117 -1.01262,-0.85109 -1.96413,-1.59981 -2.11448,-1.66382 -0.15034,-0.064 -0.88137,0.41653 -1.62452,1.06788 -3.96873,3.47845 -7.69043,4.91397 -10.22948,3.94568 z m 3.97723,-2.23537 c 1.18313,-0.44956 3.71511,-2.16031 5.27572,-3.56459 l 1.02444,-0.92182 -1.36148,-1.63107 c -0.74881,-0.89709 -1.68652,-2.08367 -2.08378,-2.63685 -0.63731,-0.88745 -0.83973,-1.02056 -1.72068,-1.13156 -0.54912,-0.0691 -2.07057,-0.3046 -3.38102,-0.52315 -1.31045,-0.21854 -2.39831,-0.38516 -2.41747,-0.37027 -0.23334,0.18134 -0.76755,3.99426 -0.79283,5.65876 -0.0436,2.86977 0.64444,4.80965 1.8833,5.30992 0.79106,0.31943 2.46868,0.23053 3.5738,-0.18937 z m 19.48958,-0.1449 c 1.06485,-0.89602 1.44356,-2.22521 1.41767,-4.97571 -0.0266,-2.82773 -0.60865,-5.83505 -1.09332,-5.64907 -0.16944,0.0651 -1.68774,0.31977 -3.37399,0.56613 -2.27065,0.33172 -3.13449,0.54339 -3.33028,0.81601 -0.58495,0.81447 -2.19286,2.86795 -2.9907,3.81944 l -0.847,1.01012 0.9553,0.97386 c 1.092,1.11324 4.00449,3.10655 5.28736,3.61869 0.47651,0.19023 1.41939,0.35089 2.09525,0.35703 1.00818,0.009 1.34572,-0.0872 1.87971,-0.5365 z m -9.28467,-8.76212 0.46565,-0.65393 h -2.83059 c -1.55682,0 -2.83059,0.0639 -2.83059,0.14203 0,0.18744 0.99559,1.48901 1.94116,2.53775 l 0.75615,0.83864 1.01628,-1.10526 c 0.55896,-0.60789 1.22584,-1.39954 1.48194,-1.7592 z m 1.23529,-2.81886 c 0.90722,-10e-4 0.90773,-0.002 2.07361,-1.89639 0.64138,-1.04239 1.66593,-2.82443 2.27677,-3.96007 l 1.1106,-2.06479 -1.09377,-2.05065 c -0.60157,-1.12787 -1.62004,-2.88942 -2.26324,-3.91457 l -1.16945,-1.86391 -1.46249,-0.13811 c -1.85795,-0.17547 -4.52033,-0.17665 -6.36055,-0.003 l -1.43242,0.13539 -1.29994,2.08332 c -0.71497,1.14583 -1.71383,2.90681 -2.2197,3.91329 l -0.91978,1.82997 0.58347,1.20246 c 0.3209,0.66136 1.32499,2.44147 2.23131,3.95578 l 1.64785,2.75332 1.63743,0.0875 c 0.90056,0.0482 2.56337,0.0524 3.69513,0.009 1.13175,-0.0429 2.46607,-0.0785 2.96517,-0.0791 v 0 z m 5.94569,-0.65755 c 0.91006,-0.14475 1.78071,-0.34094 1.93476,-0.43614 0.21868,-0.13524 0.11909,-0.60412 -0.45425,-2.1395 -0.4039,-1.08151 -0.80127,-1.96639 -0.88305,-1.96639 -0.15465,0 -2.63247,4.2361 -2.75523,4.71036 -0.0385,0.14852 0.059,0.23054 0.21661,0.18235 0.15757,-0.0481 1.03108,-0.20601 1.94116,-0.35068 z m -18.39875,-2.27825 c -1.12991,-1.98836 -1.46259,-2.42808 -1.62179,-2.1436 -0.32195,0.5753 -1.47685,3.82728 -1.39005,3.9141 0.15849,0.15849 2.88173,0.68806 3.64713,0.70924 l 0.78621,0.0217 z m -4.51397,-0.39441 c 0.31169,-0.87795 0.85216,-2.26545 1.20105,-3.0833 0.6058,-1.42004 0.61949,-1.52132 0.3041,-2.24841 -0.18164,-0.41877 -0.73566,-1.8431 -1.23115,-3.16518 l -0.90089,-2.40376 -1.72878,0.57993 c -4.38826,1.47204 -7.25215,3.69687 -7.25215,5.63385 0,1.36958 1.39747,3.01632 3.60955,4.25337 1.38963,0.77713 4.46872,2.00089 5.08061,2.01924 0.24389,0.008 0.52387,-0.47651 0.91766,-1.58574 z m 29.20529,1.03125 c 1.9945,-0.71179 4.17499,-1.84154 5.22546,-2.70743 0.91751,-0.7563 1.66457,-2.06389 1.66457,-2.9135 0,-2.02268 -2.66234,-4.19045 -7.01661,-5.71314 -1.05955,-0.37053 -1.94794,-0.64711 -1.97419,-0.61463 -0.0263,0.0325 -0.26669,0.72557 -0.53431,1.54016 -0.26763,0.81461 -0.80439,2.21193 -1.1928,3.10519 l -0.70621,1.62408 0.69356,1.66008 c 0.38147,0.91305 0.92303,2.31801 1.20347,3.12216 0.28045,0.80413 0.63228,1.46206 0.78184,1.46206 0.14958,0 0.98441,-0.25426 1.85522,-0.56503 z m -24.59892,-10.86074 c 0.74454,-1.27589 1.32756,-2.34598 1.29556,-2.37796 -0.10928,-0.10928 -4.13762,0.632 -4.30825,0.79272 -0.14294,0.13464 0.88888,3.32437 1.28024,3.95759 0.17448,0.28232 0.21845,0.22211 1.73245,-2.37235 z m 19.77659,0.57433 c 0.60341,-1.62834 0.67764,-2.00416 0.42722,-2.16273 -0.1667,-0.1055 -0.35182,-0.19534 -0.4114,-0.19954 -0.0596,-0.005 -0.91712,-0.13917 -1.90569,-0.29989 -1.28658,-0.20918 -1.77905,-0.22334 -1.73283,-0.0498 0.12136,0.45572 2.60087,4.68277 2.7468,4.68277 0.08,0 0.47422,-0.88686 0.8759,-1.97079 z m -20.99463,-4.61924 c 1.01261,-0.16895 2.37813,-0.36766 3.03446,-0.44159 1.04028,-0.11713 1.25694,-0.22722 1.68912,-0.85794 0.27268,-0.39794 1.22119,-1.58788 2.10781,-2.64431 l 1.61205,-1.92078 -1.02682,-0.92977 c -4.63401,-4.19596 -8.44,-5.18339 -10.01249,-2.59763 -0.92411,1.5196 -1.00953,4.91793 -0.21524,8.56341 0.28399,1.30338 0.16886,1.26945 2.81111,0.82861 z m 22.38486,-0.0705 c 0.47961,-1.74833 0.65321,-3.11507 0.66711,-5.25261 0.0151,-2.24497 -0.0373,-2.59676 -0.5253,-3.56268 -0.29782,-0.58947 -0.80901,-1.26602 -1.13594,-1.50345 -1.23845,-0.89938 -3.90594,-0.29701 -6.36555,1.43747 -1.38218,0.97469 -3.54524,2.8468 -3.54524,3.06836 0,0.14038 2.77592,3.68332 3.68225,4.69972 0.49132,0.55102 0.782,0.63959 3.13717,0.95596 1.42764,0.19178 2.6379,0.3909 2.68949,0.44249 0.26937,0.26937 1.30173,0.0584 1.39601,-0.28526 z m -10.18222,-1.53253 c -0.33792,-0.4557 -0.97711,-1.24975 -1.42042,-1.76452 -0.71657,-0.83207 -0.84672,-0.90237 -1.17275,-0.63349 -0.57027,0.47033 -2.46159,2.79163 -2.46159,3.02124 0,0.11894 1.19274,0.20535 2.83457,0.20535 h 2.83458 z"
       id="path4407-6-5"
       inkscape:connector-curvature="0" />
    <path
       inkscape:connector-curvature="0"
       class="cls-1"
       d="m -150.9891,370.61276 -44.77805,25.15436 v -19.59256 l 27.85802,-15.22317 z m 3.06996,-2.75043 v -52.5631 l -16.38497,9.40027 v 33.77997 l 16.37624,9.37417 z m -96.55562,2.75043 44.73414,25.13697 v -19.57517 l -27.86675,-15.22317 z m -3.07003,-2.75043 v -52.5631 l 16.385,9.40027 v 33.77997 z m 1.92092,-55.96631 45.92716,-25.79848 v 18.93978 l -29.42813,16.05876 -0.23653,0.13064 z m 95.76628,0 -45.90956,-25.79848 v 18.93978 l 29.42806,16.05005 0.23688,0.13064 16.26219,-9.32193 z"
       id="path6239-4-3"
       style="fill:#3c6cb4;fill-opacity:1;stroke-width:0.43523383" />
    <path
       inkscape:connector-curvature="0"
       class="cls-1"
       d="m -199.69671,371.71817 -27.53348,-15.03171 V 326.9364 l 27.53348,15.73674 z m 3.92956,0 27.53343,-15.01431 V 326.9364 l -27.53343,15.73674 z m -29.59476,-48.19369 27.62996,-15.09263 27.62994,15.09263 -27.62994,15.80633 z"
       id="path6241-4-6"
       style="stroke-width:0.43523383" />
    <path
       style="fill:#3c6cb4;fill-opacity:1;fill-rule:nonzero;stroke:#3c6cb4;stroke-width:0.47211814;stroke-linecap:round;stroke-linejoin:miter;stroke-miterlimit:4;stroke-dasharray:none;stroke-dashoffset:0;stroke-opacity:1"
       d="m -237.14497,316.5103 c -4.12007,-2.38011 -7.49185,-4.44646 -7.49286,-4.59186 -0.001,-0.14549 10.06447,-5.91864 22.36776,-12.82953 l 22.36962,-12.56519 -0.12894,9.22754 -0.12894,9.22751 -14.50999,7.9544 c -7.98052,4.37492 -14.61705,7.9432 -14.74788,7.92949 -0.13095,-0.014 -3.60884,-1.97223 -7.72891,-4.35236 z"
       id="path6755-1-5"
       inkscape:connector-curvature="0" />
    <path
       style="fill:#3c6cb4;fill-opacity:1;fill-rule:nonzero;stroke:#3c6cb4;stroke-width:0.47211814;stroke-linecap:round;stroke-linejoin:miter;stroke-miterlimit:4;stroke-dasharray:none;stroke-dashoffset:0;stroke-opacity:1"
       d="m -211.23511,331.34109 c -7.13894,-4.10674 -13.07826,-7.56443 -13.19846,-7.68375 -0.24885,-0.24702 25.92205,-14.66502 26.65822,-14.68645 0.46252,-0.014 25.75635,13.62488 26.55241,14.31698 0.37887,0.32936 -25.74314,15.59125 -26.60427,15.54367 -0.23555,-0.014 -6.26901,-3.38372 -13.4079,-7.49045 z"
       id="path6757-4-7"
       inkscape:connector-curvature="0" />
    <path
       style="fill:#3c6cb4;fill-opacity:1;fill-rule:nonzero;stroke:#3c6cb4;stroke-width:0.47211814;stroke-linecap:round;stroke-linejoin:miter;stroke-miterlimit:4;stroke-dasharray:none;stroke-dashoffset:0;stroke-opacity:1"
       d="m -195.63497,357.11245 0.004,-14.2446 11.96934,-6.84513 c 6.5831,-3.7648 12.68272,-7.22195 13.55469,-7.68253 l 1.58548,-0.8374 v 14.53697 14.537 l -5.35206,2.90809 c -2.94361,1.59949 -9.04493,4.92506 -13.55851,7.39014 l -8.20646,4.48201 0.004,-14.24455 z"
       id="path6759-0-7"
       inkscape:connector-curvature="0" />
    <path
       style="fill:#3c6cb4;fill-opacity:1;fill-rule:nonzero;stroke:#3c6cb4;stroke-width:0.47211814;stroke-linecap:round;stroke-linejoin:miter;stroke-miterlimit:4;stroke-dasharray:none;stroke-dashoffset:0;stroke-opacity:1"
       d="m -213.82901,363.74908 -13.19503,-7.19095 -0.006,-14.55571 c -0.004,-8.00569 0.1661,-14.48496 0.37731,-14.39839 0.21128,0.0865 6.3125,3.54825 13.55853,7.69268 l 13.17454,7.53538 v 14.06223 c 0,7.73418 -0.16047,14.05845 -0.3568,14.05394 -0.19642,-0.004 -6.29457,-3.24418 -13.55186,-7.19918 z"
       id="path6761-7-5"
       inkscape:connector-curvature="0" />
    <path
       style="fill:#3c6cb4;fill-opacity:1;fill-rule:nonzero;stroke:#3c6cb4;stroke-width:0.47211814;stroke-linecap:round;stroke-linejoin:miter;stroke-miterlimit:4;stroke-dasharray:none;stroke-dashoffset:0;stroke-opacity:1"
       d="m -247.49409,341.405 v -25.77488 l 1.54614,0.8922 c 0.85035,0.49068 4.49241,2.57809 8.09346,4.63862 l 6.54726,3.7465 -0.12453,16.73941 -0.12492,16.73939 -7.61176,4.3874 c -4.18651,2.41304 -7.77237,4.39162 -7.96862,4.39683 -0.19642,0.006 -0.35679,-11.5893 -0.35679,-25.76547 z"
       id="path6763-3-7"
       inkscape:connector-curvature="0" />
    <path
       style="fill:#3c6cb4;fill-opacity:1;fill-rule:nonzero;stroke:#3c6cb4;stroke-width:0.47211814;stroke-linecap:round;stroke-linejoin:miter;stroke-miterlimit:4;stroke-dasharray:none;stroke-dashoffset:0;stroke-opacity:1"
       d="m -222.18228,382.8664 c -19.17585,-10.79248 -21.45439,-12.19653 -20.69464,-12.75213 2.29258,-1.6765 15.03806,-8.63654 15.58218,-8.50905 0.34222,0.0803 6.64147,3.43851 13.99832,7.46295 l 13.37607,7.31719 v 9.32354 c 0,5.12795 -0.16048,9.31496 -0.3568,9.30441 -0.19642,-0.01 -10.05355,-5.47665 -21.90513,-12.14691 z"
       id="path6765-2-4"
       inkscape:connector-curvature="0" />
    <path
       style="fill:#3c6cb4;fill-opacity:1;fill-rule:nonzero;stroke:#3c6cb4;stroke-width:0.47211814;stroke-linecap:round;stroke-linejoin:miter;stroke-miterlimit:4;stroke-dasharray:none;stroke-dashoffset:0;stroke-opacity:1"
       d="m -195.63457,385.70894 0.004,-9.32358 13.39283,-7.31719 c 7.36613,-4.02444 13.68087,-7.3861 14.03287,-7.47036 0.59712,-0.14287 15.65398,8.17697 16.103,8.89795 0.18839,0.30199 -42.49878,24.53671 -43.2192,24.53671 -0.17474,0 -0.31595,-4.19562 -0.31362,-9.32353 z"
       id="path6767-2-7"
       inkscape:connector-curvature="0" />
    <path
       style="fill:#3c6cb4;fill-opacity:1;fill-rule:nonzero;stroke:#3c6cb4;stroke-width:0.47211814;stroke-linecap:round;stroke-linejoin:miter;stroke-miterlimit:4;stroke-dasharray:none;stroke-dashoffset:0;stroke-opacity:1"
       d="m -156.39036,362.72897 -7.61184,-4.41146 -0.1183,-16.69432 -0.11829,-16.69426 5.79935,-3.30456 c 3.18965,-1.81751 6.82882,-3.89303 8.08697,-4.61233 l 2.28766,-1.30775 v 25.7378 c 0,14.1558 -0.16047,25.72891 -0.35677,25.71805 -0.19643,-0.01 -3.78213,-2.00486 -7.96864,-4.43117 z"
       id="path6769-4-4"
       inkscape:connector-curvature="0" />
    <path
       style="fill:#3c6cb4;fill-opacity:1;fill-rule:nonzero;stroke:#3c6cb4;stroke-width:0.47211814;stroke-linecap:round;stroke-linejoin:miter;stroke-miterlimit:4;stroke-dasharray:none;stroke-dashoffset:0;stroke-opacity:1"
       d="m -180.89087,312.89594 -14.50998,-7.95403 -0.12914,-9.30465 -0.12934,-9.30463 1.08065,0.69195 c 0.59437,0.38059 10.66085,6.06567 22.36993,12.63351 11.70911,6.56783 21.28927,12.07922 21.28927,12.24752 0,0.27797 -14.97219,9.05484 -15.31477,8.97754 -0.0803,-0.0161 -6.67619,-3.61247 -14.6567,-7.98721 z"
       id="path6771-0-6"
       inkscape:connector-curvature="0" />
    <path
       inkscape:connector-curvature="0"
       style="fill:#f0db4f;stroke-width:0.80000001"
       d="m 381.90756,188.2007 v 100 h 100 v -100 z m 52.89519,85.21041 c -1.47601,2.99919 -4.2936,4.96959 -7.55838,5.92079 -5.0168,1.152 -9.81523,0.49518 -13.38483,-1.64721 -2.38878,-1.46561 -4.25439,-3.72159 -5.5208,-6.32079 l 7.61602,-4.66399 c 0.0665,0.0272 0.26638,0.38959 0.53358,0.8568 0.97122,1.62719 1.80881,2.77919 3.45522,3.58798 1.6176,0.55199 5.16879,0.90479 6.54,-1.94159 0.83761,-1.44801 0.57119,-6.10239 0.57119,-11.25201 -8e-4,-8.092 0.0369,-16.15041 0.0369,-24.15039 h 9.36722 c 0,8.8 0.0481,17.13441 0,25.72158 0.0212,5.26401 0.47679,9.95682 -1.65601,13.88883 z m 38.85921,-2.64643 c -3.25599,11.1376 -21.4096,11.4992 -28.664,4.14082 -1.53281,-1.73202 -2.49361,-2.63681 -3.40799,-4.636 3.85518,-2.21761 3.85518,-2.21761 7.60638,-4.388 2.03762,3.13199 3.92161,4.8544 7.31121,5.5592 4.59842,0.56158 9.2248,-1.01841 8.18721,-5.90241 -1.0664,-3.98879 -9.41601,-4.95919 -15.09839,-9.2248 -5.7688,-3.8744 -7.12082,-13.28878 -2.38002,-18.66799 1.58,-1.9896 4.27441,-3.47441 7.10161,-4.18799 l 2.95039,-0.38161 c 5.6648,-0.11429 9.20561,1.38159 11.80481,4.28399 0.72321,0.73281 1.3136,1.52321 2.41759,3.236 -3.0176,1.92321 -3.00799,1.90482 -7.33038,4.70322 -0.9232,-1.98882 -2.45521,-3.23682 -4.07442,-3.7792 -2.5136,-0.76162 -5.6832,0.0665 -6.34078,2.72238 -0.22798,0.8184 -0.18081,1.58002 0.18172,2.93201 1.01839,2.32241 4.43599,3.332 7.50158,4.74079 8.8248,3.57921 11.80482,7.4168 12.5376,11.98479 0.70562,3.93283 -0.17054,6.48401 -0.304,6.8648 z"
       id="path2586-2-4" />
    <path
       inkscape:connector-curvature="0"
       style="fill:#f0db4f;stroke-width:0.80000001"
       d="m -382.48329,449.87814 v 50 h 50 v -50 z m 26.4476,42.60521 c -0.738,1.49959 -2.1468,2.48479 -3.77919,2.96039 -2.5084,0.576 -4.90762,0.24759 -6.69242,-0.8236 -1.19439,-0.73281 -2.12719,-1.8608 -2.7604,-3.1604 l 3.80801,-2.33199 c 0.0333,0.0136 0.13319,0.19479 0.26679,0.4284 0.48561,0.81359 0.90441,1.38959 1.72761,1.79399 0.8088,0.27599 2.5844,0.45239 3.27,-0.9708 0.41881,-0.724 0.2856,-3.05119 0.2856,-5.626 -3.3e-4,-4.046 0.0185,-8.07521 0.0185,-12.0752 h 4.68361 c 0,4.4 0.024,8.56721 0,12.86079 0.0106,2.63201 0.23839,4.97841 -0.82801,6.94442 z m 19.4296,-1.32322 c -1.62799,5.5688 -10.7048,5.7496 -14.332,2.07041 -0.7664,-0.86601 -1.2468,-1.3184 -1.70399,-2.318 1.92759,-1.1088 1.92759,-1.1088 3.80319,-2.194 1.01881,1.566 1.9608,2.4272 3.6556,2.7796 2.29921,0.28079 4.6124,-0.5092 4.09361,-2.9512 -0.5332,-1.9944 -4.70801,-2.4796 -7.5492,-4.6124 -2.8844,-1.9372 -3.56041,-6.64439 -1.19001,-9.334 0.79,-0.9948 2.13721,-1.7372 3.55081,-2.09399 l 1.47519,-0.19081 c 2.8324,-0.0571 4.60281,0.6908 5.90241,2.142 0.3616,0.3664 0.6568,0.7616 1.20879,1.618 -1.5088,0.9616 -1.50399,0.95241 -3.66519,2.35161 -0.4616,-0.99441 -1.2276,-1.61841 -2.03721,-1.8896 -1.2568,-0.38081 -2.8416,0.0333 -3.17039,1.36119 -0.11399,0.4092 -0.0904,0.79001 0.0909,1.466 0.5092,1.16121 2.218,1.666 3.75079,2.3704 4.4124,1.7896 5.90241,3.7084 6.2688,5.99239 0.35281,1.96642 -0.0853,3.24201 -0.152,3.4324 z"
       id="path2586-2-7" />
    <path
       inkscape:connector-curvature="0"
       style="fill:#f0db4f;stroke-width:0.80000001"
       d="m -190.04923,-110.07209 v 100.000002 h 99.999997 V -110.07209 Z m 52.8952,85.210414 c -1.47601,2.99919 -4.29361,4.969589 -7.55839,5.92079 -5.0168,1.151999 -9.81523,0.495178 -13.38483,-1.647211 -2.38878,-1.465609 -4.25439,-3.72159 -5.5208,-6.32079 l 7.61602,-4.66399 c 0.0665,0.0272 0.26638,0.389591 0.53358,0.8568 0.97122,1.62719 1.80882,2.779191 3.45522,3.58798 1.6176,0.55199 5.16879,0.90479 6.54,-1.941589 0.83761,-1.448012 0.57119,-6.10239 0.57119,-11.252012 -8e-4,-8.091998 0.0369,-16.15041 0.0369,-24.150389 h 9.36722 c 0,8.799999 0.0481,17.134409 0,25.72158 0.0212,5.26401 0.47679,9.956821 -1.65601,13.888831 z m 38.859196,-2.646431 c -3.255986,11.137601 -21.409596,11.499199 -28.663996,4.140819 -1.5328,-1.732018 -2.49361,-2.636809 -3.40799,-4.636 3.85518,-2.217608 3.85518,-2.217608 7.60638,-4.387999 2.03762,3.13199 3.92161,4.854401 7.31121,5.559201 4.59842,0.561578 9.2248,-1.018411 8.18721,-5.90241 -1.0664,-3.988792 -9.41601,-4.959191 -15.09839,-9.224801 -5.7688,-3.8744 -7.12082,-13.28878 -2.38002,-18.667989 1.58,-1.989601 4.27441,-3.474411 7.10161,-4.187992 l 2.95039,-0.381609 c 5.6648,-0.114292 9.20561,1.381588 11.80481,4.283991 0.72321,0.732808 1.3136,1.523209 2.41759,3.235999 -3.0176,1.923209 -3.00799,1.904821 -7.33038,4.703221 -0.9232,-1.98882 -2.45521,-3.23682 -4.07442,-3.7792 -2.5136,-0.761622 -5.6832,0.0665 -6.34078,2.72238 -0.22798,0.818398 -0.18081,1.58002 0.18172,2.932009 1.01839,2.322409 4.43599,3.331998 7.50158,4.740791 8.8248,3.579209 11.804817,7.4168 12.537596,11.984789 0.70562,3.93283 -0.17054,6.484009 -0.303998,6.8648 z"
       id="path2586-2-3" />
  </g>
</svg>
